<?xml version="1.0" ?><svg id="Layer_1" style="enable-background:new 0 0 256 256;" version="1.1" viewBox="0 0 256 256" xml:space="preserve" xmlns="http://www.w3.org/2000/svg" xmlns:xlink="http://www.w3.org/1999/xlink"><g><path d="M124.6,93.7c1,0.9,2.2,1.4,3.4,1.4c1.2,0,2.5-0.5,3.4-1.4l16.9-15.9L197.8,89c0.7,0.2,1.4,0.2,2.1,0l31.5-6.4   c2.7-0.6,4.5-3.2,3.9-6c-0.6-2.7-3.2-4.5-6-3.9l-30.4,6.2l-51-11.5c-1.6-0.4-3.3,0.1-4.6,1.2L128,83.1l-15.4-14.5   c-1.2-1.1-2.9-1.6-4.6-1.2l-51,11.5l-30.4-6.2c-2.7-0.6-5.4,1.2-6,3.9c-0.6,2.7,1.2,5.4,3.9,6L56.1,89c0.7,0.1,1.4,0.1,2.1,0   l49.4-11.2L124.6,93.7z"/><path d="M164.9,96.1c-2.8-0.2-5.2,1.9-5.4,4.7l-4.7,68.7c0,0.2-0.1,0.4-0.1,0.5l-4.4,66.9c-0.2,3-2.7,5.4-5.7,5.4h-33.3   c-3,0-5.5-2.4-5.7-5.4l-4.4-66.9c0-0.2,0-0.4-0.1-0.5l-4.7-68.7c-0.2-2.8-2.6-4.9-5.4-4.7c-2.8,0.2-4.9,2.6-4.7,5.4l4.8,69.3   c0,0.2,0,0.3,0.1,0.5l4.4,66.4c0.5,8.3,7.5,14.8,15.8,14.8h33.3c8.3,0,15.2-6.5,15.8-14.8l4.4-66.4c0-0.2,0-0.3,0.1-0.5l4.8-69.3   C169.8,98.7,167.7,96.3,164.9,96.1z"/><path d="M128,57.5c14.9,0,27-12.1,27-27c0-14.9-12.1-27-27-27s-27,12.1-27,27C101,45.4,113.1,57.5,128,57.5z M128,13.7   c9.3,0,16.9,7.6,16.9,16.9s-7.6,16.9-16.9,16.9s-16.9-7.6-16.9-16.9S118.7,13.7,128,13.7z"/><path d="M248.3,129.2c-1.9-2-5.1-2.1-7.1-0.2l-34.6,32.8l-14.9-15.5c-1.9-2-5.1-2.1-7.1-0.1c-2,1.9-2.1,5.1-0.1,7.1l18.3,19.1   c1,1,2.3,1.5,3.6,1.5c1.2,0,2.5-0.5,3.5-1.4l38.3-36.3C250.1,134.4,250.2,131.3,248.3,129.2z"/><path d="M55.7,126.9c-2-2-5.2-2-7.1,0l-16.8,16.8l-16.8-16.8c-2-2-5.2-2-7.1,0c-2,2-2,5.2,0,7.1l16.8,16.8L7.8,167.7   c-2,2-2,5.2,0,7.1c1,1,2.3,1.5,3.6,1.5s2.6-0.5,3.6-1.5L31.7,158l16.8,16.8c1,1,2.3,1.5,3.6,1.5s2.6-0.5,3.6-1.5c2-2,2-5.2,0-7.1   l-16.8-16.8L55.7,134C57.6,132.1,57.6,128.9,55.7,126.9z"/></g></svg>