<?xml version="1.0" ?><svg id="Layer_1" style="enable-background:new 0 0 256 256;" version="1.1" viewBox="0 0 256 256" xml:space="preserve" xmlns="http://www.w3.org/2000/svg" xmlns:xlink="http://www.w3.org/1999/xlink"><g><path d="M138.9,170.5h-28.1c-2.7,0-5,2.2-5,5v73.7c0,2.7,2.2,5,5,5h28.1c2.7,0,5-2.2,5-5v-73.7   C143.8,172.7,141.6,170.5,138.9,170.5z M133.9,244.2h-18.2v-63.8h18.2V244.2z"/><path d="M244.7,155.7h-28.1c-2.7,0-5,2.2-5,5v88.6c0,2.7,2.2,5,5,5h28.1c2.7,0,5-2.2,5-5v-88.6   C249.6,157.9,247.4,155.7,244.7,155.7z M239.7,244.2h-18.2v-78.7h18.2V244.2z"/><path d="M191.8,123.4h-28.1c-2.7,0-5,2.2-5,5v120.8c0,2.7,2.2,5,5,5h28.1c2.7,0,5-2.2,5-5V128.3   C196.7,125.6,194.5,123.4,191.8,123.4z M186.8,244.2h-18.2V133.3h18.2V244.2z"/><path d="M57.1,61.9c16.6,0,30-13.5,30-30s-13.5-30-30-30c-16.6,0-30,13.5-30,30S40.5,61.9,57.1,61.9z M57.1,11.8   c11.1,0,20.1,9,20.1,20.1S68.2,52,57.1,52C46,52,36.9,43,36.9,31.9S46,11.8,57.1,11.8z"/><path d="M93.6,99.6c-2.8-0.2-5.1,1.9-5.3,4.6l-4.7,68c0,0.2-0.1,0.4-0.1,0.5l-4.3,66.1c-0.2,3-2.7,5.3-5.7,5.3H40.6   c-3,0-5.5-2.3-5.7-5.3l-4.3-66.1c-0.1-2.1-1.5-3.8-3.5-4.4c-6.4-2-6.4-2-6.9-9l-3.9-70.1v-0.8c0,0,0.1,0,0.1,0   c5.8-1.8,15.9-4.9,20.8-6.5l16.5,15.5c1.9,1.8,4.9,1.8,6.8,0l16.7-15.7l48.8,11c0.7,0.2,1.4,0.2,2.1,0l45.8-9.4   c2.7-0.5,4.4-3.2,3.9-5.8c-0.5-2.7-3.2-4.4-5.8-3.9l-44.8,9.2L76.8,71.4c-1.6-0.4-3.3,0.1-4.5,1.2L57.1,87L41.8,72.6   c-1.3-1.2-3.2-1.7-4.9-1.1c0,0-15.5,5-23.4,7.3c-4.5,1.4-7.1,4.9-7.1,9.6c0,0.4,0,1.2,0,1.3l3.9,69.2l0.1,1.2   c0.7,10.5,2.5,13.7,10.6,16.7l4.1,62.8c0.5,8.2,7.4,14.6,15.6,14.6h32.9c8.2,0,15-6.4,15.6-14.6l4.3-65.6c0-0.2,0-0.3,0.1-0.5   l4.7-68.5C98.3,102.2,96.3,99.8,93.6,99.6z"/></g></svg>