<?xml version="1.0" ?><svg id="Layer_1" style="enable-background:new 0 0 256 256;" version="1.1" viewBox="0 0 256 256" xml:space="preserve" xmlns="http://www.w3.org/2000/svg" xmlns:xlink="http://www.w3.org/1999/xlink"><g><path d="M175.4,100.6L151.9,144c-1.9,3.5-3.9,7.1-5.8,10.9c-1.2,2.4-0.2,5.3,2.2,6.4c0.7,0.3,1.4,0.5,2.1,0.5c1.8,0,3.5-1,4.3-2.7   c1.7-3.5,3.7-7.1,5.6-10.5l23.6-43.4c0.2-0.4,0.6-1.1,0.5-1.2c0.2,0.2,0.5,0.8,0.8,1.2l2.8,5.1c8.6,15.9,17.6,32.3,26.4,48.5   c1.3,2.3,4.2,3.2,6.5,1.9c2.3-1.3,3.2-4.2,1.9-6.5c-8.8-16.1-17.7-32.6-26.4-48.5l-2.8-5.1c-1-1.8-3.3-6-9-6.1   C178.8,94.4,176.4,98.9,175.4,100.6z"/><path d="M228.7,170.1l-1.6-0.1c-0.1,0-0.2,0-0.4,0c-0.2,0-0.4,0-0.5,0c-0.2,0-0.6-0.1-0.8-0.1c-0.9-0.1-1.7-0.1-2.6-0.1h-76.8   c-0.9,0-1.7,0.1-2.9,0.1c-0.2,0-0.2,0-0.4,0c-0.2,0-0.4,0-0.9,0l-1.6,0.1c-1.3,0.1-2.5,0.7-3.3,1.7c-0.8,1-1.2,2.2-1.1,3.5l0.1,1.5   c0.7,10.8,5.3,19.5,14.2,26.7c9.3,7.4,21.5,11.5,34.4,11.5s25.1-4.1,34.4-11.5c8.8-7.2,13.4-15.9,14.1-26.6l0.1-1.6   C233.3,172.6,231.3,170.3,228.7,170.1z M212.9,195.9c-7.6,6.1-17.7,9.4-28.4,9.4c-10.7,0-20.8-3.3-28.4-9.4   c-5.8-4.7-9.1-10-10.2-16.6c0.1,0,0.1,0,0.2,0h76.8c0.1,0,0.1,0,0.2,0C221.9,185.9,218.6,191.2,212.9,195.9z"/><path d="M72.1,63.9c16.1,0,29.1-13.1,29.1-29.1S88.1,5.6,72.1,5.6S42.9,18.7,42.9,34.8S56,63.9,72.1,63.9z M72.1,15.2   c10.8,0,19.5,8.8,19.5,19.5s-8.8,19.5-19.5,19.5s-19.5-8.8-19.5-19.5S61.3,15.2,72.1,15.2z"/><path d="M107.5,100.5c-2.7-0.2-4.9,1.8-5.1,4.5l-4.5,66c0,0.2,0,0.3-0.1,0.5l-4.2,64.2c-0.2,2.9-2.6,5.2-5.5,5.2H56.1   c-2.9,0-5.3-2.3-5.5-5.2l-4.2-64.2c-0.1-2-1.5-3.7-3.4-4.3c-6.2-1.9-6.2-1.9-6.7-8.7l-3.8-68v-0.8c0,0,0.1,0,0.1,0   c7.4-2.2,14.8-4.6,22.4-7c3.2,3.8,6.6,7.6,10,11.5l3.4,3.9c0.9,1,2.2,1.6,3.6,1.6h0c1.4,0,2.7-0.6,3.6-1.6l4-4.5   c3.2-3.7,6.3-7.2,9.4-10.8c0.2,0,0.3,0,0.5,0L139,93.7c0.7,0.2,1.4,0.2,2,0l44.4-9.1c2.6-0.5,4.3-3.1,3.7-5.7   c-0.5-2.6-3.1-4.3-5.7-3.7l-43.4,8.9l-48.8-11c-0.2,0-0.4-0.1-0.6-0.1c-0.9-0.1-5.7-0.3-8.5,3c-3.1,3.7-6.3,7.3-9.6,11.1l-0.4,0.4   c-3.5-3.9-6.8-7.7-10-11.5c-2.6-3-5.9-4-9.6-2.8C45,75.6,37.4,78,29.8,80.3c-4.4,1.4-6.9,4.8-6.9,9.3c0,0.4,0,1.1,0,1.2l3.7,67.1   l0.1,1.1c0.7,10.2,2.4,13.3,10.3,16.2l4,60.9c0.5,7.9,7.2,14.2,15.1,14.2H88c7.9,0,14.6-6.2,15.1-14.2l4.2-63.7   c0-0.2,0-0.3,0.1-0.5l4.6-66.5C112.1,102.9,110.1,100.6,107.5,100.5z"/></g></svg>