<svg width="256" height="256" xmlns="http://www.w3.org/2000/svg">

 <g>
  <title>background</title>
  <rect fill="none" id="canvas_background" height="402" width="582" y="-1" x="-1"/>
 </g>
 <g>
  <title>Layer 1</title>
  <path id="svg_2" d="m178.571194,50.677583c2.2,6.1 5.6,10.5 10.1,13c2.9,1.6 6.2,2.5 9.4,2.5c0.1,0 0.2,0 0.4,0c3.3,0 6.6,-0.9 9.5,-2.5c4.5,-2.6 7.9,-6.9 10.1,-13c1.8,-4.9 4,-11.4 4.4,-18.2c0.5,-7.4 -1.8,-14.4 -6.3,-19.1c-4.4,-4.6 -10.8,-7.1 -17.7,-6.8c-7.1,-0.2 -13.5,2.2 -17.9,6.8c-4.5,4.7 -6.9,11.7 -6.3,19.1c0.3,6.8 2.5,13.3 4.3,18.2zm8.7,-30.8c2.6,-2.7 6.4,-4.1 11.1,-3.9c4.4,-0.2 8.3,1.3 10.8,3.9c2.7,2.8 4,7.1 3.7,11.9c-0.4,5.6 -2.3,11.3 -3.9,15.6c-1.4,3.9 -3.4,6.6 -5.9,8c-1.5,0.8 -3.3,1.2 -5,1.3c-1.7,0 -3.4,-0.4 -4.9,-1.3c-2.5,-1.4 -4.5,-4.1 -5.9,-8l0,0c-1.6,-4.3 -3.5,-10 -3.9,-15.6c-0.1,-4.8 1.2,-9.1 3.9,-11.9z"/>
  <path id="svg_3" d="m243.671194,91.977583c-1.2,-6.7 -5.7,-12.2 -12,-14.7c-7.3,-3 -17.4,-7.4 -17.4,-7.4l-2.5,-1.1l-2.2,1.6c0,0 -0.9,0.7 -1.6,1.1c-1.7,1.1 -3.5,1.8 -5.4,2.3c-1.1,0.3 -2.2,0.4 -3.1,0.4l-2.4,0c-1,0 -2,-0.2 -3.2,-0.5c-1.9,-0.4 -3.7,-1.2 -5.5,-2.4c-0.5,-0.3 -1.4,-1 -1.4,-1l-2.5,-1.8l-2.7,1.5c-0.1,0 -0.4,0.2 -0.8,0.4c-2.8,1.3 -10.1,4.3 -16.1,6.8c-6.3,2.6 -10.7,8.1 -11.9,14.7l-3.5,18.4l97.8,0l-3.6,-18.3zm-82.9,8.9l1.4,-7.2c0.6,-3.5 3,-6.4 6.2,-7.7c2.7,-1.1 11,-4.5 15.3,-6.4c2.6,1.6 5.3,2.7 8.1,3.4c1.7,0.4 3.4,0.6 5.3,0.7l2.7,0c1.6,-0.1 3.3,-0.3 5,-0.7c2.9,-0.7 5.7,-1.8 8.1,-3.4c0,0 0.1,0 0.1,-0.1c3.5,1.5 10,4.3 15.2,6.4c3.3,1.4 5.6,4.2 6.3,7.7l1.4,7.2l-75.1,0l0,0.1z"/>
  <path id="svg_4" d="m37.433406,50.435992c2.2,6.1 5.6,10.5 10.1,13c2.9,1.6 6.2,2.5 9.4,2.5c0.1,0 0.2,0 0.3,0c3.3,0 6.6,-0.9 9.5,-2.5c4.5,-2.6 7.9,-6.9 10.1,-13c1.8,-4.9 4,-11.4 4.4,-18.2c0.5,-7.4 -1.8,-14.4 -6.3,-19.1c-4.4,-4.6 -10.8,-7.1 -17.7,-6.8c-7.1,-0.3 -13.5,2.2 -17.9,6.8c-4.5,4.7 -6.9,11.7 -6.3,19.1c0.5,6.8 2.6,13.3 4.4,18.2zm8.7,-30.8c2.4,-2.6 6.1,-3.9 10.5,-3.9c0.2,0 0.4,0 0.6,0c2.6,-0.1 7.4,0.3 10.8,3.9c2.7,2.8 4,7.1 3.7,11.9c-0.4,5.7 -2.3,11.3 -3.9,15.6c-1.4,3.9 -3.4,6.6 -5.9,8c-1.5,0.8 -3.2,1.2 -5,1.3c-1.7,0 -3.4,-0.4 -4.9,-1.3c-2.5,-1.4 -4.5,-4.1 -5.9,-8l0,0c-1.6,-4.3 -3.5,-10 -3.9,-15.6c-0.1,-4.8 1.2,-9.1 3.9,-11.9z"/>
  <path id="svg_5" d="m90.633406,77.035992l0,0c-7.3,-3 -17.4,-7.4 -17.4,-7.4l-2.5,-1.1l-2.2,1.7c0,0 -0.9,0.7 -1.6,1.1c-1.7,1.1 -3.5,1.8 -5.4,2.3c-1.2,0.3 -2.2,0.4 -3.1,0.4c-0.3,0 -0.6,0 -1,0l-0.3,0l-0.3,0c-0.3,0 -0.6,0 -0.9,0c-1,0 -2,-0.2 -3.2,-0.5c-1.9,-0.4 -3.7,-1.2 -5.5,-2.4c-0.5,-0.3 -1.4,-1 -1.5,-1l-2.2,-1.6l-2.5,1.1c0,0 -10.1,4.4 -17.4,7.4c-6.3,2.6 -10.7,8.1 -12,14.7l-3.5,18.4l97.8,0l-3.5,-18.4c-1.1,-6.7 -5.5,-12.2 -11.8,-14.7zm-71,23.6l1.4,-7.2c0.6,-3.5 3,-6.4 6.2,-7.7c5.2,-2.1 11.7,-4.9 15.2,-6.4c2.6,1.6 5.3,2.8 8.2,3.4c1.8,0.4 3.4,0.6 5.3,0.7c0.4,0 0.8,0 1.2,0c0.4,0 0.8,0 1.5,0c1.6,0 3.3,-0.3 5,-0.7c2.9,-0.7 5.7,-1.8 8.1,-3.4c0,0 0.1,0 0.1,-0.1c3.5,1.5 10,4.3 15.2,6.4c3.3,1.3 5.6,4.2 6.3,7.7l1.4,7.2l-75.1,0l0,0.1z"/>
  <path id="svg_6" d="m106.247,171.522417c0.5,6.8 2.6,13.3 4.4,18.2c2.2,6.1 5.6,10.5 10.1,13c2.9,1.6 6.2,2.5 9.4,2.5c0.1,0 0.1,0 0.2,0c3.3,0 6.7,-0.8 9.7,-2.5c4.5,-2.6 7.9,-6.9 10.1,-13c1.8,-4.9 4,-11.4 4.4,-18.2c0.5,-7.4 -1.8,-14.4 -6.3,-19.1c-4.4,-4.6 -10.8,-7.1 -17.7,-6.8c-7.1,-0.3 -13.5,2.2 -17.9,6.8c-4.6,4.8 -6.9,11.7 -6.4,19.1zm13.2,-12.5c3.5,-3.6 8.3,-4 11.1,-3.9c4.4,-0.1 8.3,1.3 10.8,3.9c2.7,2.8 4,7.1 3.7,11.9c-0.4,5.7 -2.3,11.3 -3.9,15.6c-1.4,3.9 -3.4,6.6 -5.9,8c-1.5,0.8 -3.3,1.2 -5,1.3c-1.7,0 -3.4,-0.4 -4.9,-1.3c-2.5,-1.4 -4.5,-4.1 -5.9,-8l0,0c-1.6,-4.3 -3.5,-10 -3.9,-15.6c-0.2,-4.8 1.2,-9.1 3.9,-11.9z"/>
  <path id="svg_7" d="m175.847,231.122417c-1.2,-6.6 -5.7,-12.2 -12,-14.7c-7.3,-3 -17.4,-7.4 -17.4,-7.4l-2.5,-1.1l-2.2,1.6c0,0 -0.9,0.7 -1.6,1.1c-1.7,1.1 -3.5,1.8 -5.4,2.3c-1.2,0.3 -2.2,0.4 -3.1,0.4c-0.3,0 -0.6,0 -1,0l-0.3,0l-0.3,0c-0.3,0 -0.6,0 -0.9,0c-1,0 -2,-0.2 -3.2,-0.5c-1.9,-0.4 -3.7,-1.2 -5.5,-2.4c-0.5,-0.3 -1.4,-1 -1.5,-1l-2.2,-1.6l-2.5,1.1c0,0 -10.1,4.4 -17.4,7.4c-6.3,2.6 -10.7,8.1 -12,14.7l-3.5,18.4l97.8,0l-3.3,-18.3zm-82.9,8.9l1.4,-7.2c0.6,-3.5 3,-6.4 6.2,-7.7c5.2,-2.1 11.7,-4.9 15.2,-6.4c2.6,1.6 5.3,2.8 8.2,3.4c1.8,0.4 3.4,0.6 5.3,0.7c0.4,0 0.8,0 1.2,0c0.4,0 0.9,0 1.5,0c1.6,0 3.3,-0.3 5,-0.7c2.9,-0.7 5.7,-1.8 8.1,-3.4c0,0 0.1,0 0.1,-0.1c3.5,1.5 10,4.3 15.2,6.4c3.3,1.4 5.6,4.2 6.3,7.7l1.4,7.2l-75.1,0l0,0.1z"/>
  <path stroke="null" transform="rotate(180 128.3278045654297,124.65625762939455) " id="svg_8" d="m143.936006,141.691835c0.992967,0 1.923873,-0.496483 2.482417,-1.365329c0.868846,-1.365329 0.434423,-3.165082 -0.930906,-4.033927l-14.149776,-8.87464l-0.124121,-16.880435c0,-1.613571 -1.303269,-2.91684 -2.91684,-2.91684c0,0 0,0 0,0c-1.613571,0 -2.91684,1.303269 -2.91684,2.9789l0.124121,16.694253l-14.335957,8.936701c-1.365329,0.868846 -1.799752,2.668598 -0.930906,4.033927c0.558544,0.868846 1.48945,1.365329 2.482417,1.365329c0.558544,0 1.055027,-0.124121 1.551511,-0.434423l14.087716,-8.750519l14.025655,8.81258c0.496483,0.248242 1.055027,0.434423 1.551511,0.434423z"/>
 </g>
</svg>