<?xml version="1.0" ?><svg id="Layer_1" style="enable-background:new 0 0 256 256;" version="1.1" viewBox="0 0 256 256" xml:space="preserve" xmlns="http://www.w3.org/2000/svg" xmlns:xlink="http://www.w3.org/1999/xlink"><g><path d="M157.3,102.8c2.3-1.6,2.8-4.8,1.2-7c-9.5-13.2-8.8-30.5,1.8-43c20.9-24.8,54.1-33.7,79.9-36.7c1,14.8-1,31.6-5.9,47.8   c-1.8,5.9-18.3,57.1-53.8,46.5c-1.5-0.5-10.8-4.7-12.8-5.8c-1.1-0.9-2.5-1.2-3.9-1c-6.4,1.1-13.3,25.2-13.8,36.1   c-0.1,2.8,2,5.1,4.8,5.3c0.1,0,0.2,0,0.2,0c2.7,0,4.9-2.1,5-4.8c0.4-9.8,4.1-19.8,6.5-25c0.8,0.4,1.7,0.8,2.7,1.2   c1.6,0.7,7,3.2,8.3,3.6c34.1,10.2,57.1-22.3,66.4-53.2c5.7-19.1,7.8-39.2,5.8-56.4c0-0.1,0-0.3-0.1-0.4c-0.5-2.7-3.1-4.6-5.8-4.3   c-40.4,3.8-72,17.9-91.3,40.7c-13.6,16.1-14.5,38.3-2.3,55.3C151.9,103.9,155.1,104.4,157.3,102.8z"/><path d="M98.6,130.3c10.2,0.7,17.4-4.2,21.6-8.2c5.3,6,9.6,12.7,12.7,19.8c0.8,1.9,2.7,3,4.6,3c0.7,0,1.4-0.1,2-0.4   c2.5-1.1,3.7-4.1,2.6-6.6c-4.3-9.9-10.6-19-18.6-26.9c-1.1-1.1-2.6-1.6-4.1-1.4c-1.5,0.2-2.9,1-3.7,2.3c-0.1,0.1-5.9,9.1-16.1,8.4   c-18-2.5-30-24.1-36.9-42c-0.3-0.8-1.5-3.9-2.5-6.7c12.6-2.2,37.3-4.6,53.3,6.5c7,4.9,10.4,13.9,8.2,22.3c-0.7,2.7,1,5.4,3.7,6.1   c2.7,0.7,5.4-1,6.1-3.7c3.1-12.5-1.8-25.8-12.3-33C97.7,55,65.5,60.1,52.3,63c-1.4,0.4-2.5,1.4-3.1,2.7c-0.8,1.7-1.3,2.8,4.2,16.4   C64.8,111.6,79.9,127.8,98.6,130.3z"/><path d="M227.6,160.9l-62,26c-2.6,1.1-3.8,4-2.7,6.6c1.1,2.6,4,3.8,6.6,2.7l62-26c2.7-1.1,5.7-0.3,7.5,1.9c1.1,1.4,1.6,3.2,1.3,5   c-0.3,1.8-1.3,3.4-2.9,4.4c-27,17.7-88.6,52.5-91.5,54.1c-0.1,0.1-0.2,0.1-0.4,0.2v0c-7.5,4.4-15.8,5.7-26.4,3.8   c-0.7-0.1-14.9-1.9-48.9-6l-17.4-2.1v-67.8c2.8-0.2,5.2-0.3,6.4-0.3l0.6,0c23.4-1.5,45.7,3,69.4,7.8c3,0.6,6.1,1.2,9.1,1.8   c3.2,0.6,5.6,3.5,5.6,6.8c0,0.2,0,0.4-0.1,0.8c-0.2,1.9-1.2,3.3-2,4c-1.3,1.3-3,2-4.9,2H89.7c-2.8,0-5,2.3-5,5s2.3,5,5,5h47.4   c4.5,0,8.8-1.8,12-5c2.7-2.8,4.4-6.2,4.8-9.7c0.1-0.7,0.2-1.5,0.2-2.2c0-8.1-5.8-15.1-13.7-16.6c-3-0.6-6-1.2-9.1-1.8   c-23.3-4.7-47.3-9.6-72-8l-0.5,0c-1.1,0.1-3.5,0.2-6.2,0.3c-0.6-2.1-2.4-3.7-4.8-3.7H10.5c-2.8,0-5,2.3-5,5v84.5c0,2.8,2.3,5,5,5   h37.4c2,0,3.7-1.2,4.5-2.9l16.7,2c19.9,2.4,47.2,5.8,48.4,5.9c3.7,0.7,7.3,1,10.7,1c8.3,0,15.7-2,22.4-5.9c0.1,0,0.1-0.1,0.2-0.1   c0.6-0.4,64.3-36.4,92.1-54.5c3.9-2.5,6.6-6.6,7.3-11.2c0.7-4.6-0.5-9.3-3.5-12.9C242.1,159.9,234.4,158,227.6,160.9z M42.9,234.3   H15.6v-74.4h27.3V234.3z"/></g></svg>