<?xml version="1.0" ?><svg id="Layer_1" style="enable-background:new 0 0 256 256;" version="1.1" viewBox="0 0 256 256" xml:space="preserve" xmlns="http://www.w3.org/2000/svg" xmlns:xlink="http://www.w3.org/1999/xlink"><g><g><path d="M188.9,186.1c-2.7,0-4.9,2.2-4.9,4.9v51h-17.9v-42.3c0-2.7-2.2-4.9-4.9-4.9s-4.9,2.2-4.9,4.9v47.2c0,2.7,2.2,4.9,4.9,4.9    h27.6c2.7,0,4.9-2.2,4.9-4.9v-55.8C193.7,188.3,191.5,186.1,188.9,186.1z"/><path d="M233.7,159.4c-2.7,0-4.9,2.2-4.9,4.9v77.7H211v-60.5c0-2.7-2.2-4.9-4.9-4.9s-4.9,2.2-4.9,4.9v65.4c0,2.7,2.2,4.9,4.9,4.9    h27.6c2.7,0,4.9-2.2,4.9-4.9v-82.5C238.6,161.5,236.4,159.4,233.7,159.4z"/><path d="M240.1,105.7c-0.1-1.7-1.1-3.3-2.7-4c-1.5-0.8-3.4-0.6-4.8,0.3l-31.7,21.1c-1.4,1-2.3,2.6-2.1,4.4c0.1,1.7,1.1,3.3,2.7,4    l12.3,6.1c-15.5,31.3-62.6,43.4-100.7,38.7c-2.6-0.3-5.1,1.6-5.4,4.2c-0.3,2.7,1.6,5.1,4.2,5.4c5.9,0.7,11.9,1.1,18,1.1    c37.9,0,77.5-14.3,92.6-45.1l13.1,6.5c0.7,0.3,1.4,0.5,2.1,0.5c0.9,0,1.9-0.3,2.7-0.8c1.4-1,2.3-2.6,2.1-4.4L240.1,105.7z     M221.9,130.8L221.9,130.8L221.9,130.8l-8.7-4.3l17.7-11.8l1.4,21.3L221.9,130.8z"/><path d="M144,197.3c-2.7,0-4.9,2.2-4.9,4.9v39.8h-17.9v-39.7c0-2.7-2.2-4.9-4.9-4.9c-2.7,0-4.9,2.2-4.9,4.9v44.5    c0,2.7,2.2,4.9,4.9,4.9H144c2.7,0,4.9-2.2,4.9-4.9v-44.6C148.9,199.5,146.7,197.3,144,197.3z"/></g><path d="M63.1,63.3c16.2,0,29.4-13.2,29.4-29.4S79.3,4.4,63.1,4.4S33.7,17.6,33.7,33.8S46.9,63.3,63.1,63.3z M63.1,14.1   c10.9,0,19.7,8.8,19.7,19.7S74,53.6,63.1,53.6s-19.7-8.8-19.7-19.7S52.2,14.1,63.1,14.1z"/><path d="M98.9,100.2c-2.7-0.2-5,1.8-5.2,4.5l-4.6,66.6c0,0.2-0.1,0.4-0.1,0.6l-4.2,64.8c-0.2,2.9-2.6,5.2-5.6,5.2H47   c-2.9,0-5.4-2.3-5.6-5.2l-4.2-64.8c-0.1-2-1.5-3.7-3.4-4.3c-6.3-1.9-6.3-1.9-6.8-8.8L23.1,90l0-0.8c0,0,0.1,0,0.1,0   c5.7-1.7,15.6-4.8,20.3-6.4L59.8,98c1.9,1.8,4.8,1.7,6.6,0l16.4-15.4l47.8,10.8c0.7,0.2,1.4,0.2,2,0l44.9-9.2   c2.6-0.5,4.3-3.1,3.8-5.7c-0.5-2.6-3.1-4.3-5.7-3.8l-43.9,9L82.5,72.6c-1.6-0.4-3.2,0.1-4.4,1.2l-14.9,14l-15-14   c-1.3-1.2-3.1-1.6-4.8-1.1c0,0-15.2,4.9-22.9,7.2c-4.4,1.4-7,4.8-7,9.4c0,0.4,0,1.2,0,1.2l3.8,67.8l0.1,1.2   c0.7,10.3,2.4,13.4,10.4,16.3l4,61.5c0.5,8,7.2,14.3,15.3,14.3h32.2c8,0,14.7-6.3,15.2-14.3l4.2-64.3c0-0.2,0.1-0.3,0.1-0.5   l4.6-67.2C103.6,102.7,101.5,100.4,98.9,100.2z"/></g></svg>