<?xml version="1.0" ?><svg id="Layer_1" style="enable-background:new 0 0 256 256;" version="1.1" viewBox="0 0 256 256" xml:space="preserve" xmlns="http://www.w3.org/2000/svg" xmlns:xlink="http://www.w3.org/1999/xlink"><g><path d="M160.8,133.3l-1,2.9l22.2,22.2c1.9,1.9,5.1,1.9,7,0c1.9-1.9,1.9-5.1,0-7l-17.9-17.9c0.4-1.4,0.7-2.9,1-4.4   c3.2-16.9-2.1-34.4-13.8-46.5c-0.3-0.3-0.6-0.7-0.9-1l-0.4-0.4c-12.3-12-29.7-17.4-46.5-14.4c-1.2,0.2-2.4,0.5-3.6,0.8l-8.6,2   l31.6,31.6c1.3,1.3,1.9,2.9,1.9,4.7c0,1.8-0.7,3.4-1.9,4.7L111,129.4c-1.2,1.3-2.9,1.9-4.7,1.9h0c-1.8,0-3.4-0.7-4.7-1.9L70.1,97.8   l-2.1,8.5c-0.3,1.3-0.6,2.6-0.8,4c-2.9,17,2.7,34.4,14.9,46.6c0.4,0.4,0.9,0.9,1.2,1.2c12.2,11.4,29.3,16.5,45.7,13.6   c1.6-0.3,3.3-0.6,4.9-1.1l17.9,17.9c1,1,2.2,1.5,3.5,1.5s2.5-0.5,3.5-1.5c1.9-1.9,1.9-5.1,0-7l-22.2-22.2l-2.9,1   c-2.1,0.7-4.2,1.3-6.4,1.6c-13.6,2.4-27.2-1.6-37.4-11.2c-0.3-0.2-0.6-0.5-0.9-0.8c-8.4-8.4-12.9-20-12.6-31.8l18.2,18.2   c3.1,3.1,7.3,4.9,11.7,4.9c0,0,0,0,0,0c4.4,0,8.6-1.7,11.7-4.8l18.8-18.8c3.1-3.1,4.9-7.3,4.9-11.7c0-4.4-1.7-8.6-4.9-11.7   l-18.3-18.3c11.8-0.3,23.3,4.2,31.8,12.6l0.3,0.3c0.1,0.1,0.2,0.2,0.3,0.3c9.7,10.1,14,24.3,11.4,38   C161.9,129.4,161.4,131.4,160.8,133.3z"/><path d="M20.8,129.4c0-59.9,48.7-108.6,108.6-108.6c14.9,0,29.3,2.9,42.8,8.7L157.8,44c-1.3,1.3-1.7,3.1-1.3,4.8   c0.5,1.7,1.8,3.1,3.5,3.5L207.5,65c0.4,0.1,0.9,0.2,1.3,0.2c1.3,0,2.6-0.5,3.5-1.5c1.3-1.3,1.7-3.1,1.3-4.8l-12.7-47.5   c-0.5-1.7-1.8-3.1-3.5-3.5c-1.7-0.4-3.5,0-4.8,1.3L179.7,22c-15.8-7.4-32.7-11.2-50.3-11.2C64.1,10.9,10.9,64,10.9,129.4   c0,15.1,2.7,29.6,8.2,43.3c0.8,2,2.6,3.1,4.6,3.1c0.6,0,1.2-0.1,1.8-0.3c2.6-1,3.8-3.9,2.8-6.4C23.3,156.5,20.8,143.2,20.8,129.4z    M193.5,22.3l8.3,30.9l-30.9-8.3L193.5,22.3z"/><path d="M237.8,87c-1-2.6-3.8-3.9-6.4-2.9c-2.6,1-3.9,3.8-2.9,6.4c4.7,12.6,6.9,26,6.6,39.8c-0.6,29-12.5,56-33.4,76.1   c-20.9,20.1-48.3,30.8-77.4,30.2c-14.9-0.3-29.2-3.5-42.6-9.6l14.8-14.2c1.3-1.2,1.8-3,1.4-4.8c-0.4-1.7-1.7-3.1-3.4-3.6   l-47.2-13.7c-1.7-0.5-3.5,0-4.8,1.2c-1.3,1.2-1.8,3-1.4,4.8l11.7,47.8c0.4,1.7,1.7,3.1,3.4,3.6c0.5,0.1,0.9,0.2,1.4,0.2   c1.3,0,2.5-0.5,3.4-1.4l13.1-12.6c15.6,7.7,32.4,11.8,50.1,12.2c0.8,0,1.7,0,2.5,0c30.7,0,59.8-11.7,82-33   c22.8-21.9,35.8-51.4,36.4-83.1C245.4,115.4,243,100.8,237.8,87z M60.3,233.8l-7.6-31.1l30.7,8.9L60.3,233.8z"/></g></svg>