<?xml version="1.0" ?><svg id="Layer_1" style="enable-background:new 0 0 256 256;" version="1.1" viewBox="0 0 256 256" xml:space="preserve" xmlns="http://www.w3.org/2000/svg" xmlns:xlink="http://www.w3.org/1999/xlink"><g><path d="M173.3,179.6c1.2-8.5-1.1-16.9-6.3-23.3c-4-5-9.9-7.8-16.1-7.8h-0.1c-6.1,0-12,2.8-16,7.6c-9.1,11-10.1,25.3-2.4,37.5   c3,4.8,7.8,8.1,13.4,9.2c1.4,0.3,2.7,0.4,4.1,0.4c4.2,0,8.2-1.3,11.7-3.7C168,195,172.2,187.8,173.3,179.6z M155.8,191.2   c-2.3,1.6-5.2,2.2-8,1.7c-2.9-0.6-5.3-2.2-6.8-4.7c-5.3-8.5-4.7-18,1.6-25.6c2.1-2.5,5.1-4,8.2-4h0c3.2,0,6.2,1.5,8.3,4.1   c3.4,4.2,4.9,9.8,4.1,15.5C162.6,183.6,159.9,188.4,155.8,191.2z"/><path d="M241.1,203c-6.4-6.9-17.3-8.4-25.3-3.5c-6.8,4.2-11.4,11.5-12.7,20.2c-1.4,9,1.1,17.8,6.6,24.1c4.3,5,10,7.6,15.8,7.6   c4,0,8-1.2,11.6-3.8c6.6-4.7,10.9-12.3,11.8-20.9C249.7,217.8,246.9,209.2,241.1,203z M238.8,225.6c-0.6,5.7-3.3,10.7-7.6,13.6   c0,0,0,0,0,0c-4.6,3.2-9.9,2.4-13.9-2.2c-3.6-4.1-5.1-9.9-4.2-16c0.9-5.7,3.8-10.5,8-13.1c1.6-1,3.4-1.5,5.3-1.5   c2.8,0,5.4,1.2,7.4,3.3C237.6,213.9,239.4,219.7,238.8,225.6z"/><path d="M220.4,149.1c-2.4-1.5-5.5-0.8-7,1.6l-59,93c-1.5,2.4-0.8,5.5,1.6,7c0.8,0.5,1.8,0.8,2.7,0.8c1.7,0,3.3-0.8,4.3-2.3l59-93   C223.5,153.7,222.8,150.6,220.4,149.1z"/><path d="M102.3,74.3c-7.9-2.4-23.6-7.4-23.6-7.4c-1.7-0.6-3.7-0.1-5,1.1L58.3,82.4L42.9,68c-1.3-1.3-3.3-1.7-5-1.1   c0,0-15.7,5-23.6,7.4C9.6,75.7,7,79.3,7,84l3.9,71.1l0.1,1.2c0.7,10.6,2.5,13.9,10.7,16.9l4.2,63.4c0.5,8.3,7.5,14.8,15.8,14.8   h33.2c8.3,0,15.2-6.5,15.8-14.8l4.2-63.4c8.2-3,10-6.3,10.7-16.9l4-71.2l0-1C109.6,79.3,106.9,75.7,102.3,74.3z M99.4,84l-3.9,70.4   l-0.1,1.2c-0.5,7.1-0.5,7.1-6.9,9c-2,0.6-3.4,2.4-3.6,4.5L80.6,236c-0.2,3-2.7,5.3-5.7,5.3H41.7c-3,0-5.5-2.3-5.7-5.3l-4.4-66.8   c-0.1-2.1-1.6-3.9-3.6-4.5c-6.4-2-6.4-2-6.9-9l-4-70.8l0-0.9c0,0,0.1,0,0.1,0c5.9-1.8,16-5,20.9-6.6L54.8,93c1.9,1.8,5,1.8,6.9,0   l16.7-15.6c4.9,1.6,15.1,4.8,20.9,6.6L99.4,84C99.4,84,99.4,84,99.4,84C99.4,84,99.4,84,99.4,84z"/><path d="M58.3,60.1C73.6,60.1,86,47.7,86,32.3S73.6,4.6,58.3,4.6S30.5,17,30.5,32.3S43,60.1,58.3,60.1z M58.3,14.7   c9.7,0,17.7,7.9,17.7,17.7S68,50,58.3,50s-17.7-7.9-17.7-17.7S48.5,14.7,58.3,14.7z"/></g></svg>