<?xml version="1.0" ?><svg id="Layer_1" style="enable-background:new 0 0 256 256;" version="1.1" viewBox="0 0 256 256" xml:space="preserve" xmlns="http://www.w3.org/2000/svg" xmlns:xlink="http://www.w3.org/1999/xlink"><g><path d="M90.7,201.8c2.7,0,5-2.2,5-5v-7c5.4-1,9.8-3.1,13.5-6.4c4.7-4.2,7.3-9.8,7.3-15.7c0.1-6-2.4-11.7-7-15.9   c-4.4-4.3-10.8-6.5-16.9-8.6c-10-3.5-16.2-6.1-17.1-12.9c-0.7-4.9,3-10.1,8.2-11.6c5.8-1.7,13.5-1,20.8,1.9c2.6,1,5.4-0.2,6.5-2.8   c1-2.6-0.2-5.4-2.8-6.5c-4.2-1.7-8.4-2.7-12.6-3.2v-6.7c0-2.7-2.2-5-5-5c-2.7,0-5,2.2-5,5v6.7c-1.6,0.2-3.2,0.5-4.7,1   c-9.9,2.9-16.6,12.8-15.3,22.5c1.8,13.3,13.9,17.6,23.7,21c5.3,1.9,10.4,3.6,13.3,6.4c2.5,2.4,3.9,5.4,3.9,8.6c0,3.1-1.5,6.1-4,8.4   c-2.9,2.6-6.9,4.1-12,4.5c-4,0.2-8.6-0.2-14.2-1.2c-1.4-0.3-2.7-0.5-4-0.9c-2.6-0.8-5.4,0.7-6.2,3.3c-0.8,2.6,0.7,5.4,3.3,6.2   c1.6,0.5,3.3,0.8,5.1,1.2c4.2,0.8,7.9,1.2,11.3,1.4v6.4C85.8,199.5,88,201.8,90.7,201.8z"/><path d="M149.9,100h12.6c-7.9-11.9-18.7-21.7-31.3-28.4l-1.4-0.7l13.2-48.5c0.4-1.5,0.1-3.1-0.9-4.4c-1-1.3-2.5-2-4-2H44.1   c-1.6,0-3.1,0.8-4,2c-0.9,1.2-1.3,2.9-0.9,4.4l13.2,48.4l-1.4,0.7C22.8,86.5,5.4,115.6,5.4,147.4v76.6c0,2.8,2.3,5.1,5.1,5.1h104.7   c-0.1-0.6-0.1-1.2-0.1-1.9v-8.3H15.5v-71.5c0-28.6,16.6-55.3,42.3-67.9l0.4-0.2h32.8c2.8,0,5.1-2.3,5.1-5.1c0-2.8-2.3-5.1-5.1-5.1   H62.4l-11.7-43h80.6l-11.6,43h-1.5c-3,0-5.2,2.3-5.2,5.1c0,2.8,2.3,5.1,5.1,5.1h5.8l0.4,0.2C134.1,84.4,142.9,91.4,149.9,100z"/><path d="M241.8,108.9H136.7c-4.9,0-8.8,4-8.8,8.8v21.4c0,4.9,4,8.8,8.8,8.8c2.7,0,5-2.2,5-5c0-2.4-1.6-4.3-3.9-4.8v-19.3h102.9   v19.3c-2.2,0.5-3.8,2.5-3.8,4.8c0,2.7,2.2,5,5,5c4.9,0,8.8-4,8.8-8.8v-21.4C250.6,112.9,246.7,108.9,241.8,108.9z"/><path d="M241.8,154.9H136.7c-4.9,0-8.8,4-8.8,8.8v21.4c0,4.9,4,8.8,8.8,8.8h105.1c4.9,0,8.8-4,8.8-8.8v-21.4   C250.6,158.9,246.7,154.9,241.8,154.9z M240.7,184H137.8v-19.2h102.9V184z"/><path d="M241.8,200.9c-2.7,0-5,2.2-5,5c0,2.4,1.6,4.3,3.8,4.8l0,19.3H137.8v-19.3c2.2-0.5,3.9-2.5,3.9-4.8c0-2.7-2.2-5-5-5   c-4.9,0-8.8,4-8.8,8.8v21.4c0,4.9,4,8.8,8.8,8.8h105.1c4.9,0,8.8-4,8.8-8.8v-21.4C250.6,204.8,246.7,200.9,241.8,200.9z"/></g></svg>