<svg xmlns="http://www.w3.org/2000/svg" xmlns:xlink="http://www.w3.org/1999/xlink" width="500" zoomAndPan="magnify" viewBox="0 0 375 374.999991" height="500" preserveAspectRatio="xMidYMid meet" version="1.0"><defs><g/><clipPath id="6ae9277ae1"><path d="M 37.5 142.140625 L 337.5 142.140625 L 337.5 213.65625 L 37.5 213.65625 Z M 37.5 142.140625 " clip-rule="nonzero"/></clipPath><clipPath id="a0416a1240"><path d="M 117.402344 122.003906 L 257.597656 122.003906 L 257.597656 123.507812 L 117.402344 123.507812 Z M 256.0625 123.507812 L 257.597656 123.507812 L 257.597656 251.460938 L 256.0625 251.460938 Z M 117.402344 123.507812 L 118.90625 123.507812 L 118.90625 251.460938 L 117.402344 251.460938 Z M 117.402344 251.460938 L 257.597656 251.460938 L 257.597656 252.996094 L 117.402344 252.996094 Z M 117.402344 251.460938 " clip-rule="nonzero"/></clipPath></defs><g clip-path="url(#6ae9277ae1)"><path fill="#ffffff" d="M 37.5 142.140625 L 337.5 142.140625 L 337.5 213.625 L 37.5 213.625 Z M 37.5 142.140625 " fill-opacity="1" fill-rule="nonzero"/></g><g fill="#a6a6a6" fill-opacity="1"><g transform="translate(116.794734, 275.398576)"><g><path d="M 46.296875 0 L 122.4375 -158.109375 L 41.484375 -158.109375 C 32.878906 -158.109375 26.765625 -156.546875 23.140625 -153.421875 C 19.515625 -150.304688 17.367188 -144.53125 16.703125 -136.09375 L 16.4375 -132.5625 L 13.90625 -132.5625 L 15.4375 -180.359375 L 130.28125 -180.359375 L 130.28125 -171.765625 L 66.03125 0 Z M 46.296875 0 "/></g></g></g><g clip-path="url(#a0416a1240)"><path fill="#000000" d="M 117.402344 122.003906 L 257.65625 122.003906 L 257.65625 252.992188 L 117.402344 252.992188 Z M 117.402344 122.003906 " fill-opacity="1" fill-rule="nonzero"/></g><g fill="#000000" fill-opacity="1"><g transform="translate(159.232764, 240.884749)"><g><path d="M 5.921875 -5.9375 L 2.09375 -5.9375 L 2.09375 -4.046875 L 5.515625 -4.046875 L 5.515625 -2.984375 L 2.09375 -2.984375 L 2.09375 -1.0625 L 6.046875 -1.0625 L 6.046875 0 L 0.921875 0 L 0.921875 -7 L 5.921875 -7 Z M 5.921875 -5.9375 "/></g></g></g><g fill="#000000" fill-opacity="1"><g transform="translate(168.660391, 240.884749)"><g><path d="M 3.21875 -7.046875 C 4.125 -7.046875 4.941406 -6.804688 5.671875 -6.328125 L 5.1875 -5.296875 C 4.46875 -5.722656 3.78125 -5.9375 3.125 -5.9375 C 2.769531 -5.9375 2.488281 -5.875 2.28125 -5.75 C 2.082031 -5.625 1.984375 -5.441406 1.984375 -5.203125 C 1.984375 -4.972656 2.078125 -4.773438 2.265625 -4.609375 C 2.453125 -4.453125 2.6875 -4.332031 2.96875 -4.25 C 3.25 -4.175781 3.550781 -4.082031 3.875 -3.96875 C 4.207031 -3.851562 4.507812 -3.726562 4.78125 -3.59375 C 5.0625 -3.46875 5.296875 -3.265625 5.484375 -2.984375 C 5.671875 -2.703125 5.765625 -2.367188 5.765625 -1.984375 C 5.765625 -1.367188 5.519531 -0.875 5.03125 -0.5 C 4.539062 -0.132812 3.90625 0.046875 3.125 0.046875 C 2.582031 0.046875 2.0625 -0.0507812 1.5625 -0.25 C 1.0625 -0.457031 0.628906 -0.726562 0.265625 -1.0625 L 0.765625 -2.09375 C 1.117188 -1.757812 1.503906 -1.503906 1.921875 -1.328125 C 2.347656 -1.148438 2.753906 -1.0625 3.140625 -1.0625 C 3.554688 -1.0625 3.878906 -1.132812 4.109375 -1.28125 C 4.335938 -1.4375 4.453125 -1.648438 4.453125 -1.921875 C 4.453125 -2.160156 4.359375 -2.359375 4.171875 -2.515625 C 3.984375 -2.679688 3.75 -2.800781 3.46875 -2.875 C 3.1875 -2.957031 2.878906 -3.050781 2.546875 -3.15625 C 2.222656 -3.269531 1.921875 -3.390625 1.640625 -3.515625 C 1.367188 -3.640625 1.140625 -3.835938 0.953125 -4.109375 C 0.765625 -4.378906 0.671875 -4.707031 0.671875 -5.09375 C 0.671875 -5.6875 0.898438 -6.160156 1.359375 -6.515625 C 1.828125 -6.867188 2.445312 -7.046875 3.21875 -7.046875 Z M 3.21875 -7.046875 "/></g></g></g><g fill="#000000" fill-opacity="1"><g transform="translate(177.748151, 240.884749)"><g><path d="M 0.921875 -7 L 3.703125 -7 C 4.585938 -7 5.269531 -6.789062 5.75 -6.375 C 6.238281 -5.957031 6.484375 -5.367188 6.484375 -4.609375 C 6.484375 -3.816406 6.238281 -3.203125 5.75 -2.765625 C 5.269531 -2.328125 4.585938 -2.109375 3.703125 -2.109375 L 2.09375 -2.109375 L 2.09375 0 L 0.921875 0 Z M 2.09375 -5.9375 L 2.09375 -3.171875 L 3.65625 -3.171875 C 4.78125 -3.171875 5.34375 -3.640625 5.34375 -4.578125 C 5.34375 -5.484375 4.78125 -5.9375 3.65625 -5.9375 Z M 2.09375 -5.9375 "/></g></g></g><g fill="#000000" fill-opacity="1"><g transform="translate(187.345701, 240.884749)"><g><path d="M 5.4375 -1.578125 L 1.90625 -1.578125 L 1.234375 0 L 0.015625 0 L 3.09375 -7 L 4.3125 -7 L 7.375 0 L 6.109375 0 Z M 4.984375 -2.625 L 3.671875 -5.734375 L 2.34375 -2.625 Z M 4.984375 -2.625 "/></g></g></g><g fill="#000000" fill-opacity="1"><g transform="translate(197.592997, 240.884749)"><g><path d="M 3.265625 -9.265625 C 3.460938 -9.265625 3.6875 -9.171875 3.9375 -8.984375 C 4.1875 -8.796875 4.359375 -8.703125 4.453125 -8.703125 C 4.710938 -8.703125 4.84375 -8.867188 4.84375 -9.203125 L 5.5625 -9.203125 C 5.5625 -8.328125 5.257812 -7.890625 4.65625 -7.890625 C 4.4375 -7.890625 4.203125 -7.976562 3.953125 -8.15625 C 3.710938 -8.34375 3.546875 -8.4375 3.453125 -8.4375 C 3.210938 -8.4375 3.09375 -8.273438 3.09375 -7.953125 L 2.34375 -7.953125 C 2.34375 -8.828125 2.648438 -9.265625 3.265625 -9.265625 Z M 6.984375 0 L 5.828125 0 L 2.09375 -5.015625 L 2.09375 0 L 0.921875 0 L 0.921875 -7 L 2.078125 -7 L 5.828125 -1.96875 L 5.828125 -7 L 6.984375 -7 Z M 6.984375 0 "/></g></g></g><g fill="#000000" fill-opacity="1"><g transform="translate(208.380077, 240.884749)"><g><path d="M 5.4375 -1.578125 L 1.90625 -1.578125 L 1.234375 0 L 0.015625 0 L 3.09375 -7 L 4.3125 -7 L 7.375 0 L 6.109375 0 Z M 4.984375 -2.625 L 3.671875 -5.734375 L 2.34375 -2.625 Z M 4.984375 -2.625 "/></g></g></g><g fill="#000000" fill-opacity="1"><g transform="translate(67.053388, 188.999988)"><g><path d="M 16.726562 -8.800781 C 16.726562 -5.242188 14.167969 -2.808594 12.546875 -0.75 L 9.863281 1.746094 C 8.050781 3.183594 5.179688 5.117188 2.808594 5.117188 C 3.121094 3.746094 5.554688 2.621094 6.742188 2.058594 C 7.550781 1.621094 7.550781 1.433594 8.675781 1.1875 C 9.738281 0.9375 9.675781 0.9375 9.488281 0.0625 C 9.300781 0 9.113281 0 8.925781 0 C 6.867188 0 3.621094 1.933594 2.308594 3.121094 C 0.625 4.617188 0.8125 6.804688 3.183594 6.804688 C 4.058594 6.804688 5.304688 6.492188 6.867188 5.679688 C 7.863281 5.242188 8.675781 4.742188 9.550781 4.121094 C 10.984375 3.246094 12.980469 1.496094 14.167969 0.1875 L 15.167969 -0.9375 C 15.542969 -1.375 15.730469 -1.746094 16.101562 -2.183594 C 16.726562 -3.058594 17.289062 -3.933594 17.664062 -4.867188 C 18.539062 -7.117188 19.285156 -9.238281 17.726562 -11.484375 C 15.914062 -14.230469 10.984375 -14.480469 8.113281 -15.042969 C 6.117188 -15.417969 1.933594 -16.039062 1.933594 -18.722656 C 1.933594 -25.714844 12.421875 -36.886719 20.035156 -36.886719 C 21.59375 -36.886719 22.03125 -35.886719 22.03125 -34.578125 C 22.03125 -32.207031 19.972656 -29.148438 18.601562 -27.398438 L 16.164062 -24.402344 C 14.855469 -23.03125 11.296875 -18.972656 9.238281 -18.910156 C 9.175781 -19.160156 8.925781 -19.472656 8.738281 -19.472656 C 8.550781 -19.472656 8.425781 -19.285156 8.425781 -18.722656 C 8.425781 -18.164062 9.300781 -18.101562 9.675781 -18.101562 C 11.734375 -18.351562 16.914062 -23.28125 18.101562 -24.777344 L 19.535156 -26.402344 C 19.847656 -26.839844 20.097656 -27.027344 20.410156 -27.523438 C 21.59375 -29.085938 23.65625 -32.207031 23.65625 -34.515625 C 23.65625 -35.886719 23.71875 -36.511719 22.53125 -37.699219 C 21.78125 -38.449219 20.722656 -38.757812 19.660156 -38.757812 C 15.605469 -38.757812 9.800781 -34.765625 7.117188 -32.144531 C 5.367188 -30.394531 3.933594 -28.398438 2.496094 -26.402344 C 0.6875 -23.65625 -1.496094 -18.539062 1.0625 -15.789062 C 2.058594 -14.667969 3.558594 -14.042969 5.117188 -13.667969 C 9.488281 -12.609375 16.726562 -12.796875 16.726562 -8.800781 Z M 16.726562 -8.800781 "/></g></g></g><g fill="#000000" fill-opacity="1"><g transform="translate(87.025902, 188.999988)"><g><path d="M 4.058594 -1.3125 C 4.246094 -1.3125 4.429688 -1.25 4.617188 -1.25 C 6.367188 -1.25 8.738281 -2.308594 10.796875 -4.058594 C 12.171875 -5.117188 14.855469 -7.550781 15.042969 -7.800781 C 15.230469 -8.113281 15.042969 -8.550781 14.667969 -8.550781 C 14.605469 -8.550781 14.542969 -8.488281 14.480469 -8.488281 C 14.292969 -8.425781 13.730469 -7.925781 11.609375 -6.304688 C 10.859375 -5.742188 10.046875 -5.117188 9.800781 -4.929688 C 7.988281 -3.621094 6.054688 -2.871094 4.679688 -2.871094 C 3.683594 -2.871094 2.496094 -3.246094 2.058594 -4.183594 C 1.933594 -4.492188 1.683594 -5.117188 1.746094 -5.179688 C 1.808594 -5.179688 1.996094 -5.242188 2.183594 -5.242188 C 4.058594 -5.679688 7.054688 -8.175781 7.054688 -10.359375 C 7.117188 -10.921875 7.054688 -11.234375 6.804688 -11.671875 C 6.554688 -12.234375 6.117188 -12.484375 5.492188 -12.546875 C 2.871094 -12.546875 0.9375 -9.238281 0.4375 -6.992188 C 0.375 -6.554688 0.375 -6.367188 0.375 -5.617188 C 0.375 -3.683594 0.8125 -3.246094 2.058594 -1.996094 C 2.621094 -1.621094 3.371094 -1.375 4.058594 -1.3125 Z M 2.308594 -6.117188 C 1.933594 -5.992188 1.746094 -5.929688 1.683594 -5.992188 C 1.683594 -5.992188 1.683594 -6.242188 1.746094 -6.429688 C 1.933594 -7.925781 2.558594 -9.300781 3.433594 -10.234375 C 4.121094 -10.859375 4.992188 -11.421875 5.367188 -11.421875 C 5.992188 -11.421875 6.242188 -10.546875 5.867188 -9.550781 C 5.304688 -8.175781 3.683594 -6.554688 2.308594 -6.117188 Z M 2.308594 -6.117188 "/></g></g></g><g fill="#000000" fill-opacity="1"><g transform="translate(100.008033, 188.999988)"><g><path d="M 4.183594 3.808594 C 7.300781 3.808594 9.800781 -7.175781 10.234375 -9.363281 C 10.421875 -10.296875 10.546875 -11.171875 10.734375 -12.046875 C 10.921875 -13.355469 11.296875 -13.667969 10.421875 -14.417969 C 9.488281 -14.167969 9.550781 -13.667969 9.300781 -12.734375 C 8.675781 -9.925781 8.613281 -8.675781 7.800781 -5.679688 C 7.238281 -3.621094 5.492188 1.433594 4.183594 2.308594 C 3.996094 1.996094 3.871094 1.808594 3.746094 1.433594 C 2.871094 -0.6875 2.433594 -4.617188 2.246094 -6.867188 C 2.058594 -9.300781 2.121094 -12.296875 1.746094 -14.667969 C 1.621094 -15.667969 1.496094 -16.164062 1.0625 -16.789062 L 0.3125 -16.789062 C 0.0625 -15.667969 0.5625 -16.726562 0.8125 -14.542969 C 1.125 -11.546875 0.6875 -7.488281 1 -5.429688 C 1.25 -3.746094 1.496094 3.808594 4.183594 3.808594 Z M 4.183594 3.808594 "/></g></g></g><g fill="#000000" fill-opacity="1"><g transform="translate(111.367403, 188.999988)"><g><path d="M 4.058594 -1.3125 C 4.246094 -1.3125 4.429688 -1.25 4.617188 -1.25 C 6.367188 -1.25 8.738281 -2.308594 10.796875 -4.058594 C 12.171875 -5.117188 14.855469 -7.550781 15.042969 -7.800781 C 15.230469 -8.113281 15.042969 -8.550781 14.667969 -8.550781 C 14.605469 -8.550781 14.542969 -8.488281 14.480469 -8.488281 C 14.292969 -8.425781 13.730469 -7.925781 11.609375 -6.304688 C 10.859375 -5.742188 10.046875 -5.117188 9.800781 -4.929688 C 7.988281 -3.621094 6.054688 -2.871094 4.679688 -2.871094 C 3.683594 -2.871094 2.496094 -3.246094 2.058594 -4.183594 C 1.933594 -4.492188 1.683594 -5.117188 1.746094 -5.179688 C 1.808594 -5.179688 1.996094 -5.242188 2.183594 -5.242188 C 4.058594 -5.679688 7.054688 -8.175781 7.054688 -10.359375 C 7.117188 -10.921875 7.054688 -11.234375 6.804688 -11.671875 C 6.554688 -12.234375 6.117188 -12.484375 5.492188 -12.546875 C 2.871094 -12.546875 0.9375 -9.238281 0.4375 -6.992188 C 0.375 -6.554688 0.375 -6.367188 0.375 -5.617188 C 0.375 -3.683594 0.8125 -3.246094 2.058594 -1.996094 C 2.621094 -1.621094 3.371094 -1.375 4.058594 -1.3125 Z M 2.308594 -6.117188 C 1.933594 -5.992188 1.746094 -5.929688 1.683594 -5.992188 C 1.683594 -5.992188 1.683594 -6.242188 1.746094 -6.429688 C 1.933594 -7.925781 2.558594 -9.300781 3.433594 -10.234375 C 4.121094 -10.859375 4.992188 -11.421875 5.367188 -11.421875 C 5.992188 -11.421875 6.242188 -10.546875 5.867188 -9.550781 C 5.304688 -8.175781 3.683594 -6.554688 2.308594 -6.117188 Z M 2.308594 -6.117188 "/></g></g></g><g fill="#000000" fill-opacity="1"><g transform="translate(124.349534, 188.999988)"><g><path d="M 0.375 1 C 0.375 -0.75 1.375 -7.117188 2.433594 -8.425781 C 2.621094 -8.675781 2.871094 -8.613281 2.871094 -8.925781 C 2.871094 -9.425781 2.621094 -9.800781 2.308594 -9.800781 C 2.058594 -9.800781 1.746094 -9.550781 1.496094 -8.863281 C 0.75 -7.117188 -2.746094 4.121094 0.0625 4.121094 C 1.0625 4.121094 2.683594 -1 3.308594 -2.433594 C 3.808594 -3.746094 5.867188 -8.488281 6.617188 -9.050781 C 6.617188 -6.117188 6.554688 -2.246094 8.425781 -0.0625 C 9.113281 0.8125 10.046875 1.125 10.984375 1.125 C 13.105469 1.125 15.605469 -0.625 16.976562 -1.621094 C 17.414062 -1.933594 17.726562 -2.246094 18.226562 -2.621094 L 20.722656 -4.554688 C 21.347656 -4.992188 21.410156 -5.804688 20.722656 -5.804688 C 20.410156 -5.804688 19.972656 -5.617188 19.410156 -5.242188 L 16.101562 -2.808594 C 14.605469 -1.808594 12.734375 -0.3125 11.109375 -0.3125 C 10.171875 -0.3125 9.363281 -0.875 8.800781 -2.371094 C 8.363281 -3.621094 8.363281 -4.429688 8.113281 -5.992188 C 7.925781 -7.363281 8.238281 -8.800781 8.050781 -10.171875 C 7.925781 -11.046875 7.613281 -11.484375 7.117188 -11.484375 C 5.304688 -11.484375 1.558594 -2.183594 1 -0.5625 Z M 0.375 1 "/></g></g></g><g fill="#000000" fill-opacity="1"><g transform="translate(157.990745, 188.999988)"><g><path d="M 7.613281 -32.394531 C 8.675781 -32.394531 9.175781 -33.203125 7.925781 -33.203125 C 7.925781 -34.828125 10.234375 -39.632812 10.921875 -40.195312 C 10.921875 -36.136719 9.988281 -30.457031 9.675781 -26.214844 L 9.113281 -20.785156 C 8.863281 -18.101562 8.675781 -14.855469 8.300781 -12.359375 C 7.800781 -8.113281 6.992188 0.75 6.992188 4.742188 L 5.492188 5.492188 C 2.996094 6.804688 0.5 8.675781 -1.375 10.546875 C -1.621094 10.796875 -4.121094 13.167969 -2.621094 13.167969 C -2.121094 13.167969 -1.808594 12.796875 -1.375 12.546875 C -0.6875 12.171875 -0.5625 12.421875 -0.5625 11.546875 L -0.875 11.546875 C 1.3125 7.925781 18.351562 1.746094 22.53125 1.746094 C 22.84375 1.746094 23.09375 1.746094 23.34375 1.746094 C 24.652344 1.746094 24.464844 1.808594 24.777344 3.121094 C 24.902344 3.121094 24.964844 3.121094 25.027344 3.121094 C 25.277344 3.121094 25.339844 3.121094 25.527344 2.808594 C 26.089844 2.183594 26.089844 0.9375 24.464844 0.25 C 24.09375 0.125 23.59375 0.0625 23.03125 0.0625 C 21.160156 0.0625 18.476562 0.6875 17.101562 1.0625 C 15.605469 1.558594 14.230469 1.933594 12.734375 2.433594 L 8.488281 3.933594 C 8.488281 -0.6875 10.109375 -12.046875 10.609375 -17.351562 C 10.859375 -20.847656 11.359375 -24.34375 11.796875 -27.773438 C 12.171875 -31.707031 12.609375 -35.640625 12.609375 -39.695312 C 12.609375 -40.695312 12.296875 -42.128906 11.421875 -42.128906 C 10.171875 -42.128906 8.863281 -38.882812 8.425781 -37.761719 C 8.175781 -37.261719 5.992188 -32.394531 7.613281 -32.394531 Z M 7.613281 -32.394531 "/></g></g></g><g fill="#000000" fill-opacity="1"><g transform="translate(173.90634, 188.999988)"><g><path d="M -0.0625 -2.496094 C 1.871094 -2.496094 3.496094 -4.679688 4.554688 -6.117188 C 4.929688 -6.554688 5.179688 -6.929688 5.242188 -6.929688 C 5.242188 -5.617188 5.242188 -3.371094 7.054688 -3.371094 C 8.613281 -3.371094 12.046875 -6.117188 12.796875 -7.425781 C 12.917969 -7.613281 12.917969 -7.925781 12.859375 -7.988281 C 12.796875 -8.050781 12.796875 -8.113281 12.796875 -8.113281 C 12.796875 -8.175781 12.609375 -8.175781 12.421875 -8.175781 C 12.359375 -8.175781 12.296875 -8.175781 12.234375 -8.175781 C 12.171875 -8.175781 11.921875 -7.925781 11.671875 -7.675781 C 10.984375 -6.992188 8.113281 -4.617188 7.117188 -4.617188 C 6.992188 -4.617188 6.929688 -4.679688 6.804688 -4.804688 C 6.554688 -5.117188 6.367188 -6.054688 6.429688 -7.488281 C 6.492188 -8.425781 6.492188 -8.425781 6.367188 -8.613281 C 6.242188 -8.863281 6.054688 -8.988281 5.867188 -8.988281 C 5.742188 -8.988281 5.554688 -8.925781 5.367188 -8.800781 C 5.117188 -8.613281 4.804688 -8.300781 3.808594 -7.117188 C 2.746094 -5.804688 1.375 -4.429688 1.1875 -4.554688 C 1.125 -4.554688 2.246094 -6.492188 2.933594 -7.425781 C 3.996094 -8.925781 5.179688 -10.171875 5.617188 -10.171875 C 5.679688 -10.171875 5.742188 -10.171875 5.742188 -10.109375 C 5.742188 -10.109375 5.742188 -9.863281 5.804688 -9.675781 C 5.804688 -9.300781 5.804688 -9.238281 5.867188 -9.175781 C 5.929688 -9.113281 5.992188 -9.113281 6.054688 -9.113281 C 6.304688 -9.113281 6.429688 -9.425781 6.492188 -9.925781 C 6.554688 -10.359375 6.554688 -10.609375 6.367188 -10.921875 C 6.242188 -11.234375 5.804688 -11.484375 5.367188 -11.484375 C 5.242188 -11.484375 5.179688 -11.421875 5.054688 -11.421875 C 2.746094 -11.046875 0.0625 -7.300781 -0.75 -5.117188 C -0.9375 -4.554688 -0.9375 -4.183594 -0.875 -3.746094 C -0.8125 -3.058594 -0.5 -2.683594 -0.0625 -2.496094 Z M -0.0625 -2.496094 "/></g></g></g><g fill="#000000" fill-opacity="1"><g transform="translate(184.828809, 188.999988)"><g><path d="M 15.292969 4.742188 C 14.417969 4.742188 13.605469 2.496094 13.292969 1.683594 C 11.921875 -2.433594 12.171875 -7.863281 12.171875 -12.484375 C 11.671875 -12.796875 11.921875 -12.917969 11.109375 -12.917969 C 10.484375 -12.917969 9.425781 -10.046875 8.988281 -9.175781 L 5.054688 -0.9375 C 4.554688 0.0625 3.496094 2.246094 2.683594 2.808594 C 2.621094 2.246094 2.496094 1.808594 2.371094 1.1875 C 2.246094 0.625 2.308594 0 2.246094 -0.75 C 2.058594 -1.996094 2.246094 -6.492188 2.246094 -8.488281 C 2.246094 -9.363281 2.371094 -9.738281 2.371094 -10.421875 C 2.371094 -10.796875 2.308594 -11.109375 2.308594 -11.296875 C 2.308594 -12.171875 2.933594 -15.667969 1.558594 -15.480469 C 1.1875 -15.417969 1.3125 -15.417969 1.1875 -15.355469 C 0.5 -14.792969 0.5625 -13.480469 0.625 -12.796875 C 1 -12.609375 0.75 -12.609375 1.375 -12.609375 L 0.875 -6.992188 C 0.6875 -4.183594 0.375 -0.6875 1 2.121094 C 1.1875 2.996094 1.558594 4.367188 2.683594 4.367188 C 4.804688 4.367188 6.929688 -1.558594 7.863281 -3.433594 L 10.359375 -8.488281 C 10.546875 -8.800781 10.421875 -8.613281 10.546875 -8.738281 C 10.546875 -5.304688 10.734375 -2.621094 11.296875 0.25 C 11.734375 2.121094 13.042969 6.179688 15.167969 6.179688 C 16.914062 6.179688 17.914062 4.867188 18.785156 3.308594 C 20.847656 -0.1875 22.96875 -6.554688 22.96875 -10.984375 C 22.96875 -11.796875 23.21875 -17.789062 22.09375 -17.789062 C 20.785156 -17.789062 21.472656 -15.914062 21.53125 -14.855469 C 21.65625 -9.613281 20.910156 -4.183594 18.601562 0.5 C 18.039062 1.558594 16.601562 4.742188 15.292969 4.742188 Z M 15.292969 4.742188 "/></g></g></g><g fill="#000000" fill-opacity="1"><g transform="translate(236.799471, 188.999988)"><g><path d="M 10.984375 2.246094 L 10.546875 1.558594 C 9.363281 -0.5625 6.367188 -3.121094 4.183594 -4.246094 L 1.25 -5.679688 C 1.433594 -5.742188 2.121094 -6.117188 2.371094 -6.304688 L 11.046875 -10.546875 C 11.046875 -6.242188 10.984375 -2.183594 10.984375 2.246094 Z M 11.171875 -11.984375 L 3.246094 -8.175781 C 2.808594 -7.800781 2.558594 -7.675781 2.058594 -7.363281 C 0.25 -6.492188 0.375 -6.117188 -0.0625 -6.117188 C -0.3125 -6.117188 -0.75 -6.242188 -1.933594 -6.492188 L -9.988281 -8.425781 C -12.421875 -9.175781 -9.863281 -11.296875 -9.050781 -12.484375 L -3.621094 -17.164062 C -3.371094 -17.351562 -3.121094 -17.476562 -2.871094 -17.601562 C -0.0625 -19.785156 2.496094 -21.347656 5.492188 -23.21875 C 6.054688 -23.59375 6.492188 -23.78125 6.992188 -24.15625 L 11.921875 -26.839844 C 11.921875 -25.527344 11.796875 -24.464844 11.734375 -23.21875 C 11.671875 -21.96875 11.546875 -20.847656 11.546875 -19.535156 C 11.421875 -17.101562 11.171875 -14.792969 11.171875 -11.984375 Z M 12.234375 -28.523438 L 7.363281 -25.964844 C 6.992188 -25.839844 6.679688 -25.527344 6.304688 -25.339844 L 3.933594 -23.96875 C 3.496094 -23.65625 3.183594 -23.46875 2.746094 -23.21875 C 2.371094 -22.96875 2.058594 -22.78125 1.683594 -22.53125 L -3.808594 -18.785156 C -6.367188 -16.851562 -9.550781 -14.230469 -11.484375 -11.671875 C -11.734375 -11.296875 -11.984375 -10.859375 -12.109375 -10.421875 C -12.359375 -10.046875 -12.484375 -9.425781 -12.421875 -8.988281 C -11.984375 -7.117188 -9.238281 -6.617188 -7.613281 -6.429688 L -1.621094 -5.054688 L -2.808594 -4.058594 C -4.429688 -2.746094 -3.871094 -2.121094 -2.746094 -2.121094 C -2.121094 -2.121094 -1.808594 -2.246094 -1.3125 -2.496094 C -1.3125 -2.996094 -1.433594 -3.121094 -1.683594 -3.121094 C -1.871094 -3.121094 -2.183594 -2.996094 -2.496094 -2.996094 C -2.246094 -3.433594 -0.6875 -4.679688 -0.25 -4.617188 C -0.0625 -4.554688 -0.0625 -4.554688 0.125 -4.492188 C 0.3125 -4.429688 0.5625 -4.304688 0.75 -4.246094 C 5.742188 -2.058594 10.109375 1.0625 10.984375 6.742188 C 11.109375 7.613281 11.171875 7.863281 11.921875 7.863281 C 12.980469 7.863281 12.609375 4.617188 12.609375 3.496094 L 12.609375 -5.117188 C 12.671875 -5.617188 12.734375 -5.742188 12.734375 -6.367188 C 12.734375 -8.113281 12.859375 -9.675781 12.859375 -11.296875 L 16.789062 -12.917969 C 17.664062 -13.230469 20.472656 -14.230469 21.160156 -14.230469 C 20.847656 -13.730469 20.160156 -13.605469 20.160156 -12.980469 C 20.160156 -12.734375 20.285156 -12.671875 20.472656 -12.671875 C 21.222656 -12.671875 23.15625 -14.167969 23.15625 -14.792969 C 23.15625 -15.480469 22.78125 -15.542969 22.34375 -15.542969 C 22.15625 -15.542969 21.90625 -15.542969 21.71875 -15.542969 C 20.910156 -15.542969 18.039062 -14.605469 17.101562 -14.292969 C 16.664062 -14.167969 16.476562 -13.980469 16.101562 -13.917969 C 15.105469 -13.542969 13.792969 -13.105469 12.859375 -12.671875 L 13.417969 -23.78125 C 13.480469 -25.152344 13.480469 -26.277344 13.480469 -27.648438 C 13.792969 -27.898438 14.042969 -27.960938 14.480469 -28.148438 L 16.476562 -29.210938 C 18.660156 -30.457031 26.277344 -33.640625 28.648438 -34.140625 C 29.835938 -34.265625 30.582031 -34.453125 31.832031 -34.453125 C 31.832031 -34.015625 32.019531 -33.828125 32.269531 -33.828125 C 32.957031 -33.828125 34.078125 -35.640625 31.144531 -35.640625 C 28.023438 -35.640625 24.652344 -34.328125 21.78125 -33.140625 L 13.605469 -29.335938 C 13.605469 -29.835938 13.730469 -29.835938 13.730469 -30.394531 L 14.042969 -37.574219 C 14.042969 -38.199219 13.980469 -38.449219 13.480469 -38.449219 C 12.980469 -38.449219 13.042969 -37.199219 12.917969 -36.199219 Z M 12.234375 -28.523438 "/></g></g></g><g fill="#000000" fill-opacity="1"><g transform="translate(259.268548, 188.999988)"><g><path d="M 0.625 -5.867188 C 0.625 -3.933594 0.375 0.75 2.933594 0.75 C 3.808594 0.75 5.242188 -0.375 5.679688 -0.875 C 6.867188 -1.996094 10.984375 -7.488281 10.984375 -8.800781 C 10.984375 -8.863281 10.671875 -9.113281 10.484375 -9.175781 C 10.421875 -9.175781 10.359375 -9.175781 10.359375 -9.175781 C 10.046875 -9.175781 10.046875 -8.988281 9.863281 -8.800781 L 7.300781 -4.804688 C 6.242188 -3.371094 5.179688 -1.808594 3.683594 -0.875 C 3.433594 -0.75 3.246094 -0.6875 3.058594 -0.6875 C 2.683594 -0.6875 2.496094 -1.0625 2.308594 -1.683594 C 2.246094 -2.058594 2.183594 -2.496094 2.058594 -2.996094 C 1.683594 -5.054688 1.808594 -9.863281 2.246094 -11.671875 C 2.308594 -11.671875 2.371094 -11.609375 2.558594 -11.609375 C 2.621094 -11.609375 2.746094 -11.609375 2.933594 -11.671875 C 2.933594 -12.421875 3.058594 -13.730469 2.308594 -13.730469 C 1.1875 -13.730469 0.625 -6.992188 0.625 -5.867188 Z M 1.871094 -18.101562 C 1.871094 -17.664062 2.308594 -17.414062 2.808594 -17.414062 C 3.183594 -17.414062 3.496094 -17.539062 3.683594 -17.976562 L 3.933594 -18.847656 C 3.558594 -19.097656 3.246094 -19.160156 2.996094 -19.160156 C 2.183594 -19.160156 1.871094 -18.164062 1.871094 -18.101562 Z M 1.871094 -18.101562 "/></g></g></g><g fill="#000000" fill-opacity="1"><g transform="translate(267.75687, 188.999988)"><g><path d="M -0.1875 3.371094 C -0.1875 4.367188 0.375 4.992188 0.9375 4.992188 C 1.1875 4.992188 1.433594 4.867188 1.683594 4.617188 C 2.808594 3.246094 0.75 -0.25 5.117188 -4.804688 C 5.867188 -5.554688 6.304688 -6.179688 7.117188 -6.867188 C 7.925781 -7.675781 8.613281 -8.238281 9.300781 -9.050781 C 10.109375 -9.738281 10.671875 -10.296875 11.609375 -10.921875 C 12.234375 -11.484375 12.234375 -11.359375 12.917969 -11.671875 C 14.417969 -12.109375 14.542969 -13.605469 13.167969 -13.605469 C 12.421875 -13.605469 11.296875 -13.167969 9.675781 -11.921875 C 9.175781 -11.484375 8.800781 -11.234375 8.363281 -10.859375 L 4.554688 -7.488281 C 4.121094 -7.054688 3.808594 -6.742188 3.433594 -6.304688 C 3.058594 -5.804688 2.683594 -5.367188 2.308594 -4.867188 C 2.183594 -5.742188 2.558594 -12.917969 3.308594 -14.167969 C 3.308594 -14.167969 4.804688 -15.976562 2.808594 -15.976562 C 1.746094 -15.976562 1.496094 -13.292969 1.375 -12.046875 Z M -0.1875 3.371094 "/></g></g></g><g fill="#000000" fill-opacity="1"><g transform="translate(281.238319, 188.999988)"><g><path d="M 2.058594 -1.996094 C 2.058594 -2.683594 1.996094 -2.996094 1.996094 -3.433594 C 1.871094 -4.058594 2.058594 -4.121094 2.058594 -4.804688 C 2.121094 -6.179688 2.246094 -11.296875 3.121094 -12.234375 C 3.183594 -12.234375 3.558594 -12.359375 3.558594 -12.671875 C 3.558594 -13.230469 3.308594 -13.730469 2.933594 -13.730469 C 2.558594 -13.730469 2.121094 -13.167969 1.746094 -11.421875 C 1.375 -9.550781 -0.75 1.0625 1.933594 1.0625 C 3.058594 1.0625 3.683594 -1.746094 4.058594 -2.746094 C 4.492188 -4.246094 4.992188 -5.679688 5.554688 -7.175781 L 8.988281 -15.417969 C 8.988281 -15.417969 9.050781 -15.480469 9.050781 -15.542969 C 9.050781 -12.546875 8.488281 -0.125 10.359375 1.0625 C 10.609375 1.1875 10.859375 1.3125 11.046875 1.3125 C 11.859375 1.3125 12.421875 0.3125 12.796875 -0.375 L 15.105469 -4.867188 C 15.417969 -5.367188 15.605469 -5.679688 15.914062 -6.304688 C 16.289062 -6.992188 17.164062 -8.800781 17.664062 -9.113281 C 17.789062 -7.425781 19.535156 -3.183594 22.09375 -3.183594 C 24.464844 -3.183594 28.585938 -6.242188 28.585938 -7.054688 C 28.585938 -7.488281 28.398438 -7.613281 28.148438 -7.613281 C 27.027344 -7.613281 23.96875 -4.679688 22.21875 -4.679688 C 19.472656 -4.679688 19.597656 -10.546875 17.976562 -10.984375 C 17.914062 -10.984375 17.851562 -11.046875 17.726562 -11.046875 C 16.726562 -11.046875 15.976562 -9.175781 15.542969 -8.425781 C 15.292969 -7.988281 15.167969 -7.738281 14.917969 -7.238281 L 13.667969 -4.929688 C 13.230469 -4.058594 12.917969 -3.371094 12.484375 -2.621094 C 12.109375 -1.996094 11.609375 -0.75 11.109375 -0.375 C 11.046875 -1.125 10.859375 -1.683594 10.796875 -2.496094 C 10.734375 -4.929688 10.546875 -7.054688 10.671875 -9.863281 L 10.796875 -14.792969 C 10.796875 -16.476562 11.046875 -18.785156 9.613281 -18.785156 C 8.425781 -18.785156 7.738281 -16.664062 7.117188 -15.230469 C 6.054688 -12.734375 4.492188 -9.113281 3.683594 -6.554688 Z M 2.058594 -1.996094 "/></g></g></g></svg>