<svg xmlns="http://www.w3.org/2000/svg" xmlns:xlink="http://www.w3.org/1999/xlink" width="500" zoomAndPan="magnify" viewBox="0 0 375 374.999991" height="500" preserveAspectRatio="xMidYMid meet" version="1.0"><defs><g/><clipPath id="b48c304ab1"><path d="M 298 281 L 302.464844 281 L 302.464844 285.894531 L 298 285.894531 Z M 298 281 " clip-rule="nonzero"/></clipPath><clipPath id="422c85ed58"><path d="M 72.214844 59 L 77 59 L 77 282 L 72.214844 282 Z M 72.214844 59 " clip-rule="nonzero"/></clipPath><clipPath id="b5647863ca"><path d="M 72.214844 281 L 77 281 L 77 285.894531 L 72.214844 285.894531 Z M 72.214844 281 " clip-rule="nonzero"/></clipPath><clipPath id="23abbbe71d"><path d="M 298 59 L 302.464844 59 L 302.464844 282 L 298 282 Z M 298 59 " clip-rule="nonzero"/></clipPath><clipPath id="bf78ad1f31"><path d="M 76 281 L 299 281 L 299 285.894531 L 76 285.894531 Z M 76 281 " clip-rule="nonzero"/></clipPath><clipPath id="9db41e5a54"><path d="M 298 55.644531 L 302.464844 55.644531 L 302.464844 60 L 298 60 Z M 298 55.644531 " clip-rule="nonzero"/></clipPath><clipPath id="5a7351190c"><path d="M 72.214844 55.644531 L 77 55.644531 L 77 60 L 72.214844 60 Z M 72.214844 55.644531 " clip-rule="nonzero"/></clipPath><clipPath id="58e428362a"><path d="M 76 55.644531 L 299 55.644531 L 299 60 L 76 60 Z M 76 55.644531 " clip-rule="nonzero"/></clipPath></defs><rect x="-37.5" width="450" fill="#ffffff" y="-37.499999" height="449.999989" fill-opacity="1"/><g clip-path="url(#b48c304ab1)"><path fill="#000000" d="M 298.8125 281.714844 L 305.824219 281.714844 L 305.824219 288.722656 L 298.8125 288.722656 Z M 298.8125 281.714844 " fill-opacity="1" fill-rule="nonzero"/></g><g clip-path="url(#422c85ed58)"><path fill="#000000" d="M 69.574219 59.5625 L 76.660156 59.5625 L 76.660156 281.714844 L 69.574219 281.714844 Z M 69.574219 59.5625 " fill-opacity="1" fill-rule="nonzero"/></g><g clip-path="url(#b5647863ca)"><path fill="#000000" d="M 69.574219 281.714844 L 76.660156 281.714844 L 76.660156 288.722656 L 69.574219 288.722656 Z M 69.574219 281.714844 " fill-opacity="1" fill-rule="nonzero"/></g><g clip-path="url(#23abbbe71d)"><path fill="#000000" d="M 298.8125 59.5625 L 305.824219 59.5625 L 305.824219 281.714844 L 298.8125 281.714844 Z M 298.8125 59.5625 " fill-opacity="1" fill-rule="nonzero"/></g><g clip-path="url(#bf78ad1f31)"><path fill="#000000" d="M 76.660156 281.714844 L 298.8125 281.714844 L 298.8125 288.722656 L 76.660156 288.722656 Z M 76.660156 281.714844 " fill-opacity="1" fill-rule="nonzero"/></g><g clip-path="url(#9db41e5a54)"><path fill="#000000" d="M 298.8125 52.472656 L 305.824219 52.472656 L 305.824219 59.5625 L 298.8125 59.5625 Z M 298.8125 52.472656 " fill-opacity="1" fill-rule="nonzero"/></g><g clip-path="url(#5a7351190c)"><path fill="#000000" d="M 69.574219 52.472656 L 76.660156 52.472656 L 76.660156 59.5625 L 69.574219 59.5625 Z M 69.574219 52.472656 " fill-opacity="1" fill-rule="nonzero"/></g><g clip-path="url(#58e428362a)"><path fill="#000000" d="M 76.660156 52.472656 L 298.8125 52.472656 L 298.8125 59.5625 L 76.660156 59.5625 Z M 76.660156 52.472656 " fill-opacity="1" fill-rule="nonzero"/></g><g fill="#000000" fill-opacity="1"><g transform="translate(91.82252, 208.976705)"><g><path d="M 18.828125 -28.34375 L 17.609375 -26.796875 C 17.109375 -27.066406 16.632812 -27.3125 16.1875 -27.53125 C 15.75 -27.757812 15.296875 -27.941406 14.828125 -28.078125 C 14.367188 -28.222656 13.882812 -28.328125 13.375 -28.390625 C 12.863281 -28.460938 12.273438 -28.5 11.609375 -28.5 C 10.242188 -28.5 9.023438 -28.273438 7.953125 -27.828125 C 6.878906 -27.390625 5.96875 -26.796875 5.21875 -26.046875 C 4.46875 -25.296875 3.894531 -24.429688 3.5 -23.453125 C 3.113281 -22.484375 2.921875 -21.453125 2.921875 -20.359375 C 2.921875 -18.890625 3.375 -17.539062 4.28125 -16.3125 C 5.1875 -15.09375 6.597656 -14.160156 8.515625 -13.515625 C 9.429688 -13.210938 10.207031 -12.960938 10.84375 -12.765625 C 11.488281 -12.578125 12.085938 -12.390625 12.640625 -12.203125 C 13.203125 -12.023438 13.765625 -11.832031 14.328125 -11.625 C 14.898438 -11.414062 15.5625 -11.128906 16.3125 -10.765625 C 17.257812 -10.316406 17.898438 -9.695312 18.234375 -8.90625 C 18.566406 -8.113281 18.734375 -7.316406 18.734375 -6.515625 C 18.734375 -5.515625 18.535156 -4.601562 18.140625 -3.78125 C 17.753906 -2.957031 17.242188 -2.265625 16.609375 -1.703125 C 15.972656 -1.148438 15.234375 -0.71875 14.390625 -0.40625 C 13.554688 -0.101562 12.710938 0.046875 11.859375 0.046875 C 10.847656 0.046875 9.882812 -0.125 8.96875 -0.46875 C 8.050781 -0.820312 7.203125 -1.316406 6.421875 -1.953125 C 5.648438 -2.597656 4.976562 -3.394531 4.40625 -4.34375 C 3.832031 -5.289062 3.394531 -6.347656 3.09375 -7.515625 C 3.007812 -7.878906 2.851562 -8.0625 2.625 -8.0625 C 2.4375 -8.0625 2.34375 -7.863281 2.34375 -7.46875 L 2.34375 0 C 2.34375 0.363281 2.46875 0.546875 2.71875 0.546875 C 2.882812 0.546875 3.0625 0.40625 3.25 0.125 L 4.75 -2.046875 C 5.09375 -1.734375 5.503906 -1.410156 5.984375 -1.078125 C 6.472656 -0.742188 7.015625 -0.4375 7.609375 -0.15625 C 8.210938 0.113281 8.851562 0.335938 9.53125 0.515625 C 10.21875 0.703125 10.921875 0.796875 11.640625 0.796875 C 12.972656 0.796875 14.207031 0.550781 15.34375 0.0625 C 16.488281 -0.425781 17.476562 -1.097656 18.3125 -1.953125 C 19.15625 -2.816406 19.816406 -3.835938 20.296875 -5.015625 C 20.785156 -6.203125 21.03125 -7.476562 21.03125 -8.84375 C 21.03125 -10.707031 20.59375 -12.285156 19.71875 -13.578125 C 18.84375 -14.878906 17.457031 -15.804688 15.5625 -16.359375 C 14.925781 -16.554688 14.328125 -16.722656 13.765625 -16.859375 C 13.210938 -16.992188 12.644531 -17.144531 12.0625 -17.3125 C 11.476562 -17.476562 10.863281 -17.664062 10.21875 -17.875 C 9.582031 -18.09375 8.875 -18.351562 8.09375 -18.65625 C 7.226562 -18.988281 6.570312 -19.503906 6.125 -20.203125 C 5.6875 -20.898438 5.46875 -21.707031 5.46875 -22.625 C 5.46875 -23.476562 5.644531 -24.234375 6 -24.890625 C 6.363281 -25.546875 6.832031 -26.082031 7.40625 -26.5 C 7.976562 -26.914062 8.628906 -27.226562 9.359375 -27.4375 C 10.097656 -27.644531 10.847656 -27.75 11.609375 -27.75 C 12.742188 -27.75 13.742188 -27.550781 14.609375 -27.15625 C 15.472656 -26.769531 16.195312 -26.257812 16.78125 -25.625 C 17.363281 -24.988281 17.828125 -24.25 18.171875 -23.40625 C 18.523438 -22.570312 18.753906 -21.710938 18.859375 -20.828125 C 18.890625 -20.546875 19.015625 -20.40625 19.234375 -20.40625 C 19.429688 -20.40625 19.53125 -20.546875 19.53125 -20.828125 L 19.53125 -28.25 C 19.53125 -28.53125 19.445312 -28.671875 19.28125 -28.671875 C 19.144531 -28.671875 18.992188 -28.5625 18.828125 -28.34375 Z M 18.828125 -28.34375 "/></g></g></g><g fill="#000000" fill-opacity="1"><g transform="translate(114.440461, 208.976705)"><g><path d="M 16.40625 -10.140625 C 16.375 -10.585938 16.222656 -11.195312 15.953125 -11.96875 C 15.691406 -12.75 15.28125 -13.5 14.71875 -14.21875 C 14.164062 -14.945312 13.429688 -15.582031 12.515625 -16.125 C 11.597656 -16.664062 10.472656 -16.9375 9.140625 -16.9375 C 8.023438 -16.9375 6.988281 -16.671875 6.03125 -16.140625 C 5.070312 -15.617188 4.242188 -14.941406 3.546875 -14.109375 C 2.847656 -13.273438 2.300781 -12.328125 1.90625 -11.265625 C 1.519531 -10.210938 1.328125 -9.144531 1.328125 -8.0625 C 1.328125 -6.96875 1.519531 -5.90625 1.90625 -4.875 C 2.300781 -3.851562 2.847656 -2.9375 3.546875 -2.125 C 4.242188 -1.320312 5.082031 -0.671875 6.0625 -0.171875 C 7.050781 0.328125 8.132812 0.578125 9.3125 0.578125 C 10.25 0.578125 11.109375 0.445312 11.890625 0.1875 C 12.671875 -0.0703125 13.359375 -0.429688 13.953125 -0.890625 C 14.554688 -1.347656 15.066406 -1.882812 15.484375 -2.5 C 15.898438 -3.113281 16.234375 -3.753906 16.484375 -4.421875 C 16.566406 -4.617188 16.609375 -4.816406 16.609375 -5.015625 C 16.609375 -5.203125 16.523438 -5.296875 16.359375 -5.296875 C 16.222656 -5.296875 16.097656 -5.160156 15.984375 -4.890625 C 15.734375 -4.296875 15.421875 -3.707031 15.046875 -3.125 C 14.671875 -2.539062 14.210938 -2.023438 13.671875 -1.578125 C 13.128906 -1.140625 12.507812 -0.78125 11.8125 -0.5 C 11.113281 -0.21875 10.304688 -0.078125 9.390625 -0.078125 C 8.273438 -0.078125 7.375 -0.492188 6.6875 -1.328125 C 6.007812 -2.171875 5.671875 -3.507812 5.671875 -5.34375 L 5.671875 -9.59375 L 15.734375 -9.59375 C 16.179688 -9.59375 16.40625 -9.773438 16.40625 -10.140625 Z M 5.671875 -10.265625 L 5.671875 -11.9375 C 5.671875 -12.851562 5.773438 -13.597656 5.984375 -14.171875 C 6.191406 -14.742188 6.460938 -15.179688 6.796875 -15.484375 C 7.128906 -15.785156 7.503906 -15.992188 7.921875 -16.109375 C 8.347656 -16.222656 8.769531 -16.28125 9.1875 -16.28125 C 9.851562 -16.28125 10.398438 -16.160156 10.828125 -15.921875 C 11.265625 -15.679688 11.609375 -15.363281 11.859375 -14.96875 C 12.109375 -14.582031 12.273438 -14.15625 12.359375 -13.6875 C 12.441406 -13.21875 12.484375 -12.734375 12.484375 -12.234375 C 12.484375 -10.921875 12.273438 -10.265625 11.859375 -10.265625 Z M 5.671875 -10.265625 "/></g></g></g><g fill="#000000" fill-opacity="1"><g transform="translate(132.551502, 208.976705)"><g><path d="M 1.046875 -16.359375 L 1.046875 -15.6875 L 3.75 -15.6875 L 10.4375 0.171875 L 10.765625 0.171875 L 17.109375 -15.6875 L 19.578125 -15.6875 L 19.578125 -16.359375 L 13.390625 -16.359375 L 13.390625 -15.6875 L 16.359375 -15.6875 L 12.015625 -4.796875 L 7.59375 -15.6875 L 10.515625 -15.6875 L 10.515625 -16.359375 Z M 1.046875 -16.359375 "/></g></g></g><g fill="#000000" fill-opacity="1"><g transform="translate(152.999461, 208.976705)"><g><path d="M 16.40625 -10.140625 C 16.375 -10.585938 16.222656 -11.195312 15.953125 -11.96875 C 15.691406 -12.75 15.28125 -13.5 14.71875 -14.21875 C 14.164062 -14.945312 13.429688 -15.582031 12.515625 -16.125 C 11.597656 -16.664062 10.472656 -16.9375 9.140625 -16.9375 C 8.023438 -16.9375 6.988281 -16.671875 6.03125 -16.140625 C 5.070312 -15.617188 4.242188 -14.941406 3.546875 -14.109375 C 2.847656 -13.273438 2.300781 -12.328125 1.90625 -11.265625 C 1.519531 -10.210938 1.328125 -9.144531 1.328125 -8.0625 C 1.328125 -6.96875 1.519531 -5.90625 1.90625 -4.875 C 2.300781 -3.851562 2.847656 -2.9375 3.546875 -2.125 C 4.242188 -1.320312 5.082031 -0.671875 6.0625 -0.171875 C 7.050781 0.328125 8.132812 0.578125 9.3125 0.578125 C 10.25 0.578125 11.109375 0.445312 11.890625 0.1875 C 12.671875 -0.0703125 13.359375 -0.429688 13.953125 -0.890625 C 14.554688 -1.347656 15.066406 -1.882812 15.484375 -2.5 C 15.898438 -3.113281 16.234375 -3.753906 16.484375 -4.421875 C 16.566406 -4.617188 16.609375 -4.816406 16.609375 -5.015625 C 16.609375 -5.203125 16.523438 -5.296875 16.359375 -5.296875 C 16.222656 -5.296875 16.097656 -5.160156 15.984375 -4.890625 C 15.734375 -4.296875 15.421875 -3.707031 15.046875 -3.125 C 14.671875 -2.539062 14.210938 -2.023438 13.671875 -1.578125 C 13.128906 -1.140625 12.507812 -0.78125 11.8125 -0.5 C 11.113281 -0.21875 10.304688 -0.078125 9.390625 -0.078125 C 8.273438 -0.078125 7.375 -0.492188 6.6875 -1.328125 C 6.007812 -2.171875 5.671875 -3.507812 5.671875 -5.34375 L 5.671875 -9.59375 L 15.734375 -9.59375 C 16.179688 -9.59375 16.40625 -9.773438 16.40625 -10.140625 Z M 5.671875 -10.265625 L 5.671875 -11.9375 C 5.671875 -12.851562 5.773438 -13.597656 5.984375 -14.171875 C 6.191406 -14.742188 6.460938 -15.179688 6.796875 -15.484375 C 7.128906 -15.785156 7.503906 -15.992188 7.921875 -16.109375 C 8.347656 -16.222656 8.769531 -16.28125 9.1875 -16.28125 C 9.851562 -16.28125 10.398438 -16.160156 10.828125 -15.921875 C 11.265625 -15.679688 11.609375 -15.363281 11.859375 -14.96875 C 12.109375 -14.582031 12.273438 -14.15625 12.359375 -13.6875 C 12.441406 -13.21875 12.484375 -12.734375 12.484375 -12.234375 C 12.484375 -10.921875 12.273438 -10.265625 11.859375 -10.265625 Z M 5.671875 -10.265625 "/></g></g></g><g fill="#000000" fill-opacity="1"><g transform="translate(171.110502, 208.976705)"><g><path d="M 8.015625 -13.1875 L 8.015625 -16.359375 L 1.5 -16.359375 L 1.5 -15.6875 L 4.421875 -15.6875 L 4.421875 -0.671875 L 1.5 -0.671875 L 1.5 0 L 10.9375 0 L 10.9375 -0.671875 L 8.015625 -0.671875 L 8.015625 -11.015625 C 8.015625 -11.492188 8.140625 -12.003906 8.390625 -12.546875 C 8.640625 -13.085938 8.960938 -13.59375 9.359375 -14.0625 C 9.765625 -14.539062 10.222656 -14.929688 10.734375 -15.234375 C 11.253906 -15.535156 11.796875 -15.6875 12.359375 -15.6875 C 13.160156 -15.6875 13.75 -15.4375 14.125 -14.9375 C 14.5 -14.4375 14.6875 -13.644531 14.6875 -12.5625 L 14.6875 -0.671875 L 11.765625 -0.671875 L 11.765625 0 L 21.203125 0 L 21.203125 -0.671875 L 18.28125 -0.671875 L 18.28125 -12.859375 C 18.28125 -14.304688 17.867188 -15.304688 17.046875 -15.859375 C 16.222656 -16.410156 15.171875 -16.6875 13.890625 -16.6875 C 12.367188 -16.6875 11.125 -16.335938 10.15625 -15.640625 C 9.195312 -14.953125 8.484375 -14.132812 8.015625 -13.1875 Z M 8.015625 -13.1875 "/></g></g></g><g fill="#000000" fill-opacity="1"><g transform="translate(91.82252, 251.726703)"><g><path d="M 23.15625 -7.71875 C 22.9375 -6.664062 22.703125 -5.707031 22.453125 -4.84375 C 22.203125 -3.976562 21.867188 -3.234375 21.453125 -2.609375 C 21.035156 -1.984375 20.503906 -1.503906 19.859375 -1.171875 C 19.222656 -0.835938 18.414062 -0.671875 17.4375 -0.671875 L 8.890625 -0.671875 L 8.890625 -27.375 L 12.859375 -27.375 L 12.859375 -28.046875 L 1.25 -28.046875 L 1.25 -27.375 L 4.84375 -27.375 L 4.84375 -0.671875 L 1.25 -0.671875 L 1.25 0 L 22.75 0 C 23.550781 0 23.953125 -0.441406 23.953125 -1.328125 L 23.953125 -7.59375 C 23.953125 -8.257812 23.84375 -8.59375 23.625 -8.59375 C 23.425781 -8.59375 23.269531 -8.300781 23.15625 -7.71875 Z M 23.15625 -7.71875 "/></g></g></g><g fill="#000000" fill-opacity="1"><g transform="translate(116.819104, 251.726703)"><g><path d="M 4.796875 -15.9375 C 3.910156 -15.351562 3.46875 -14.660156 3.46875 -13.859375 C 3.46875 -13.460938 3.597656 -13.101562 3.859375 -12.78125 C 4.117188 -12.46875 4.488281 -12.3125 4.96875 -12.3125 C 5.4375 -12.3125 5.816406 -12.445312 6.109375 -12.71875 C 6.398438 -13 6.546875 -13.347656 6.546875 -13.765625 C 6.546875 -13.960938 6.507812 -14.164062 6.4375 -14.375 C 6.375 -14.582031 6.242188 -14.785156 6.046875 -14.984375 C 5.910156 -15.117188 5.800781 -15.210938 5.71875 -15.265625 C 5.632812 -15.328125 5.59375 -15.398438 5.59375 -15.484375 C 5.59375 -15.597656 5.675781 -15.707031 5.84375 -15.8125 C 6.007812 -15.925781 6.21875 -16.023438 6.46875 -16.109375 C 6.71875 -16.191406 7 -16.257812 7.3125 -16.3125 C 7.632812 -16.375 7.953125 -16.40625 8.265625 -16.40625 C 9.128906 -16.40625 9.8125 -16.238281 10.3125 -15.90625 C 10.8125 -15.570312 11.0625 -14.929688 11.0625 -13.984375 L 11.0625 -9.0625 C 9.78125 -9.0625 8.582031 -8.925781 7.46875 -8.65625 C 6.351562 -8.394531 5.378906 -8.015625 4.546875 -7.515625 C 3.710938 -7.015625 3.054688 -6.394531 2.578125 -5.65625 C 2.109375 -4.914062 1.875 -4.085938 1.875 -3.171875 C 1.875 -2.503906 1.992188 -1.925781 2.234375 -1.4375 C 2.472656 -0.945312 2.800781 -0.554688 3.21875 -0.265625 C 3.632812 0.0234375 4.113281 0.238281 4.65625 0.375 C 5.195312 0.507812 5.773438 0.578125 6.390625 0.578125 C 7.023438 0.578125 7.597656 0.5 8.109375 0.34375 C 8.628906 0.195312 9.085938 0.0078125 9.484375 -0.21875 C 9.890625 -0.457031 10.234375 -0.707031 10.515625 -0.96875 C 10.796875 -1.238281 11.019531 -1.5 11.1875 -1.75 C 11.269531 -1.164062 11.53125 -0.628906 11.96875 -0.140625 C 12.414062 0.335938 13.195312 0.578125 14.3125 0.578125 C 15.039062 0.578125 15.644531 0.46875 16.125 0.25 C 16.613281 0.03125 17.007812 -0.226562 17.3125 -0.53125 C 17.625 -0.84375 17.84375 -1.160156 17.96875 -1.484375 C 18.09375 -1.804688 18.15625 -2.050781 18.15625 -2.21875 C 18.15625 -2.351562 18.113281 -2.421875 18.03125 -2.421875 C 17.945312 -2.421875 17.847656 -2.3125 17.734375 -2.09375 C 17.515625 -1.613281 17.238281 -1.226562 16.90625 -0.9375 C 16.570312 -0.644531 16.207031 -0.5 15.8125 -0.5 C 15.257812 -0.5 14.925781 -0.726562 14.8125 -1.1875 C 14.707031 -1.644531 14.65625 -2.28125 14.65625 -3.09375 L 14.65625 -13.1875 C 14.65625 -14.382812 14.207031 -15.304688 13.3125 -15.953125 C 12.425781 -16.609375 11.0625 -16.9375 9.21875 -16.9375 C 8.351562 -16.9375 7.523438 -16.847656 6.734375 -16.671875 C 5.941406 -16.492188 5.296875 -16.25 4.796875 -15.9375 Z M 11.0625 -8.640625 L 11.0625 -2.84375 C 11.0625 -2.59375 10.941406 -2.328125 10.703125 -2.046875 C 10.460938 -1.765625 10.171875 -1.503906 9.828125 -1.265625 C 9.484375 -1.035156 9.125 -0.847656 8.75 -0.703125 C 8.375 -0.566406 8.054688 -0.5 7.796875 -0.5 C 6.941406 -0.5 6.289062 -0.832031 5.84375 -1.5 C 5.394531 -2.164062 5.171875 -3.070312 5.171875 -4.21875 C 5.171875 -5.132812 5.335938 -5.867188 5.671875 -6.421875 C 6.003906 -6.984375 6.441406 -7.414062 6.984375 -7.71875 C 7.523438 -8.03125 8.148438 -8.25 8.859375 -8.375 C 9.578125 -8.5 10.3125 -8.585938 11.0625 -8.640625 Z M 11.0625 -8.640625 "/></g></g></g><g fill="#000000" fill-opacity="1"><g transform="translate(135.305728, 251.726703)"><g><path d="M 1.125 -16.359375 L 1.125 -15.6875 L 3.84375 -15.6875 L 9.6875 0.453125 L 10.0625 0.453125 L 13.6875 -10.59375 L 18.078125 0.453125 L 18.40625 0.453125 L 23.453125 -15.6875 L 26.328125 -15.6875 L 26.328125 -16.359375 L 19.328125 -16.359375 L 19.328125 -15.6875 L 22.78125 -15.6875 L 19.53125 -5.21875 L 15.15625 -16.359375 L 14.859375 -16.359375 L 11.265625 -5.265625 L 7.46875 -15.6875 L 10.21875 -15.6875 L 10.21875 -16.359375 Z M 1.125 -16.359375 "/></g></g></g><g fill="#000000" fill-opacity="1"><g transform="translate(162.388833, 251.726703)"><g/></g></g><g fill="#000000" fill-opacity="1"><g transform="translate(173.614342, 251.726703)"><g><path d="M 1.546875 -27.375 L 5.140625 -27.375 L 5.140625 -0.671875 L 1.625 -0.671875 L 1.625 0 L 12.765625 0 L 12.765625 -0.671875 L 9.1875 -0.671875 L 9.1875 -14.4375 L 12.484375 -14.4375 C 13.085938 -14.4375 13.570312 -14.34375 13.9375 -14.15625 C 14.300781 -13.976562 14.585938 -13.722656 14.796875 -13.390625 C 15.003906 -13.054688 15.160156 -12.65625 15.265625 -12.1875 C 15.378906 -11.71875 15.492188 -11.1875 15.609375 -10.59375 C 15.691406 -10.207031 15.800781 -10.015625 15.9375 -10.015625 C 16.101562 -10.015625 16.1875 -10.195312 16.1875 -10.5625 L 16.1875 -19.03125 C 16.1875 -19.363281 16.101562 -19.53125 15.9375 -19.53125 C 15.800781 -19.53125 15.691406 -19.335938 15.609375 -18.953125 C 15.492188 -18.367188 15.378906 -17.835938 15.265625 -17.359375 C 15.160156 -16.890625 15.003906 -16.488281 14.796875 -16.15625 C 14.585938 -15.820312 14.300781 -15.5625 13.9375 -15.375 C 13.570312 -15.195312 13.085938 -15.109375 12.484375 -15.109375 L 9.1875 -15.109375 L 9.1875 -27.375 L 15.53125 -27.375 C 16.46875 -27.375 17.253906 -27.144531 17.890625 -26.6875 C 18.535156 -26.226562 19.050781 -25.65625 19.4375 -24.96875 C 19.832031 -24.289062 20.117188 -23.566406 20.296875 -22.796875 C 20.484375 -22.035156 20.585938 -21.347656 20.609375 -20.734375 C 20.609375 -20.347656 20.722656 -20.15625 20.953125 -20.15625 C 21.148438 -20.15625 21.25 -20.335938 21.25 -20.703125 L 21.25 -27.046875 C 21.25 -27.710938 20.898438 -28.046875 20.203125 -28.046875 L 1.546875 -28.046875 Z M 1.546875 -27.375 "/></g></g></g><g fill="#000000" fill-opacity="1"><g transform="translate(196.482669, 251.726703)"><g><path d="M 8.21875 -16.359375 L 1.5 -16.359375 L 1.5 -15.6875 L 4.625 -15.6875 L 4.625 -0.671875 L 1.5 -0.671875 L 1.5 0 L 11.359375 0 L 11.359375 -0.671875 L 8.21875 -0.671875 Z M 8.5625 -24.078125 C 8.5625 -24.691406 8.347656 -25.207031 7.921875 -25.625 C 7.503906 -26.039062 6.992188 -26.25 6.390625 -26.25 C 5.773438 -26.25 5.257812 -26.039062 4.84375 -25.625 C 4.425781 -25.207031 4.21875 -24.691406 4.21875 -24.078125 C 4.21875 -23.460938 4.425781 -22.945312 4.84375 -22.53125 C 5.257812 -22.113281 5.773438 -21.90625 6.390625 -21.90625 C 6.992188 -21.90625 7.503906 -22.113281 7.921875 -22.53125 C 8.347656 -22.945312 8.5625 -23.460938 8.5625 -24.078125 Z M 8.5625 -24.078125 "/></g></g></g><g fill="#000000" fill-opacity="1"><g transform="translate(208.751444, 251.726703)"><g><path d="M 7.421875 -13.9375 L 7.421875 -16.359375 L 0.921875 -16.359375 L 0.921875 -15.6875 L 3.84375 -15.6875 L 3.84375 -0.671875 L 0.921875 -0.671875 L 0.921875 0 L 10.34375 0 L 10.34375 -0.671875 L 7.421875 -0.671875 L 7.421875 -12.109375 C 7.421875 -12.546875 7.550781 -13 7.8125 -13.46875 C 8.082031 -13.945312 8.429688 -14.378906 8.859375 -14.765625 C 9.296875 -15.160156 9.773438 -15.472656 10.296875 -15.703125 C 10.828125 -15.941406 11.347656 -16.0625 11.859375 -16.0625 C 12.160156 -16.0625 12.425781 -16.039062 12.65625 -16 C 12.894531 -15.957031 13.015625 -15.851562 13.015625 -15.6875 C 13.015625 -15.550781 12.945312 -15.457031 12.8125 -15.40625 C 12.644531 -15.289062 12.445312 -15.097656 12.21875 -14.828125 C 12 -14.566406 11.890625 -14.160156 11.890625 -13.609375 C 11.890625 -13.023438 12.082031 -12.546875 12.46875 -12.171875 C 12.863281 -11.796875 13.378906 -11.609375 14.015625 -11.609375 C 14.578125 -11.609375 15.066406 -11.796875 15.484375 -12.171875 C 15.898438 -12.546875 16.109375 -13.066406 16.109375 -13.734375 C 16.109375 -14.285156 15.992188 -14.75 15.765625 -15.125 C 15.546875 -15.5 15.257812 -15.804688 14.90625 -16.046875 C 14.5625 -16.285156 14.160156 -16.457031 13.703125 -16.5625 C 13.242188 -16.675781 12.78125 -16.734375 12.3125 -16.734375 C 11.644531 -16.734375 11.046875 -16.632812 10.515625 -16.4375 C 9.984375 -16.25 9.507812 -16.015625 9.09375 -15.734375 C 8.675781 -15.453125 8.328125 -15.148438 8.046875 -14.828125 C 7.773438 -14.515625 7.566406 -14.21875 7.421875 -13.9375 Z M 7.421875 -13.9375 "/></g></g></g><g fill="#000000" fill-opacity="1"><g transform="translate(225.443658, 251.726703)"><g><path d="M 24.171875 -16.734375 C 22.492188 -16.734375 21.15625 -16.382812 20.15625 -15.6875 C 19.15625 -15 18.40625 -14.164062 17.90625 -13.1875 C 17.851562 -13.9375 17.691406 -14.546875 17.421875 -15.015625 C 17.160156 -15.492188 16.84375 -15.859375 16.46875 -16.109375 C 16.09375 -16.359375 15.679688 -16.523438 15.234375 -16.609375 C 14.785156 -16.691406 14.351562 -16.734375 13.9375 -16.734375 C 13.4375 -16.734375 12.898438 -16.679688 12.328125 -16.578125 C 11.765625 -16.484375 11.203125 -16.304688 10.640625 -16.046875 C 10.085938 -15.785156 9.550781 -15.421875 9.03125 -14.953125 C 8.519531 -14.492188 8.066406 -13.90625 7.671875 -13.1875 L 7.671875 -16.359375 L 1.375 -16.359375 L 1.375 -15.6875 L 4.09375 -15.6875 L 4.09375 -0.671875 L 1.375 -0.671875 L 1.375 0 L 10.34375 0 L 10.34375 -0.671875 L 7.671875 -0.671875 L 7.671875 -11.1875 C 7.671875 -11.519531 7.789062 -11.941406 8.03125 -12.453125 C 8.269531 -12.972656 8.597656 -13.472656 9.015625 -13.953125 C 9.429688 -14.441406 9.910156 -14.851562 10.453125 -15.1875 C 10.992188 -15.519531 11.554688 -15.6875 12.140625 -15.6875 C 12.722656 -15.6875 13.160156 -15.566406 13.453125 -15.328125 C 13.742188 -15.097656 13.953125 -14.816406 14.078125 -14.484375 C 14.203125 -14.148438 14.269531 -13.804688 14.28125 -13.453125 C 14.300781 -13.109375 14.3125 -12.8125 14.3125 -12.5625 L 14.3125 -0.671875 L 11.609375 -0.671875 L 11.609375 0 L 20.609375 0 L 20.609375 -0.671875 L 17.90625 -0.671875 L 17.90625 -10.84375 C 17.90625 -11.269531 18.015625 -11.757812 18.234375 -12.3125 C 18.460938 -12.863281 18.773438 -13.390625 19.171875 -13.890625 C 19.578125 -14.398438 20.050781 -14.828125 20.59375 -15.171875 C 21.132812 -15.515625 21.738281 -15.6875 22.40625 -15.6875 C 22.882812 -15.6875 23.257812 -15.601562 23.53125 -15.4375 C 23.8125 -15.269531 24.03125 -15.039062 24.1875 -14.75 C 24.34375 -14.457031 24.441406 -14.125 24.484375 -13.75 C 24.523438 -13.375 24.546875 -12.976562 24.546875 -12.5625 L 24.546875 -0.671875 L 21.90625 -0.671875 L 21.90625 0 L 30.84375 0 L 30.84375 -0.671875 L 28.125 -0.671875 L 28.125 -13.015625 C 28.125 -14.023438 27.820312 -14.894531 27.21875 -15.625 C 26.625 -16.363281 25.609375 -16.734375 24.171875 -16.734375 Z M 24.171875 -16.734375 "/></g></g></g><g fill="#000000" fill-opacity="1"><g transform="translate(257.232669, 251.726703)"><g/></g></g><g fill="#000000" fill-opacity="1"><g transform="translate(156.989981, 316.730019)"><g><path d="M 7.0625 -7.078125 L 2.5 -7.078125 L 2.5 -4.828125 L 6.578125 -4.828125 L 6.578125 -3.5625 L 2.5 -3.5625 L 2.5 -1.265625 L 7.203125 -1.265625 L 7.203125 0 L 1.09375 0 L 1.09375 -8.34375 L 7.0625 -8.34375 Z M 7.0625 -7.078125 "/></g></g></g><g fill="#000000" fill-opacity="1"><g transform="translate(166.954744, 316.730019)"><g><path d="M 3.84375 -8.40625 C 4.914062 -8.40625 5.890625 -8.117188 6.765625 -7.546875 L 6.171875 -6.3125 C 5.328125 -6.820312 4.515625 -7.078125 3.734375 -7.078125 C 3.304688 -7.078125 2.972656 -7 2.734375 -6.84375 C 2.492188 -6.695312 2.375 -6.484375 2.375 -6.203125 C 2.375 -5.929688 2.484375 -5.695312 2.703125 -5.5 C 2.929688 -5.300781 3.210938 -5.15625 3.546875 -5.0625 C 3.878906 -4.976562 4.238281 -4.863281 4.625 -4.71875 C 5.007812 -4.582031 5.367188 -4.4375 5.703125 -4.28125 C 6.046875 -4.125 6.320312 -3.878906 6.53125 -3.546875 C 6.75 -3.222656 6.859375 -2.828125 6.859375 -2.359375 C 6.859375 -1.628906 6.566406 -1.046875 5.984375 -0.609375 C 5.398438 -0.171875 4.644531 0.046875 3.71875 0.046875 C 3.082031 0.046875 2.46875 -0.0703125 1.875 -0.3125 C 1.28125 -0.550781 0.757812 -0.875 0.3125 -1.28125 L 0.921875 -2.484375 C 1.335938 -2.097656 1.796875 -1.800781 2.296875 -1.59375 C 2.804688 -1.382812 3.289062 -1.28125 3.75 -1.28125 C 4.238281 -1.28125 4.617188 -1.367188 4.890625 -1.546875 C 5.171875 -1.722656 5.3125 -1.96875 5.3125 -2.28125 C 5.3125 -2.570312 5.195312 -2.8125 4.96875 -3 C 4.75 -3.195312 4.472656 -3.34375 4.140625 -3.4375 C 3.804688 -3.53125 3.441406 -3.640625 3.046875 -3.765625 C 2.660156 -3.898438 2.300781 -4.039062 1.96875 -4.1875 C 1.632812 -4.332031 1.351562 -4.566406 1.125 -4.890625 C 0.90625 -5.222656 0.796875 -5.617188 0.796875 -6.078125 C 0.796875 -6.785156 1.070312 -7.347656 1.625 -7.765625 C 2.1875 -8.191406 2.925781 -8.40625 3.84375 -8.40625 Z M 3.84375 -8.40625 "/></g></g></g><g fill="#000000" fill-opacity="1"><g transform="translate(176.514295, 316.730019)"><g><path d="M 1.09375 -8.34375 L 4.421875 -8.34375 C 5.472656 -8.34375 6.285156 -8.09375 6.859375 -7.59375 C 7.429688 -7.101562 7.71875 -6.40625 7.71875 -5.5 C 7.71875 -4.550781 7.429688 -3.816406 6.859375 -3.296875 C 6.285156 -2.773438 5.472656 -2.515625 4.421875 -2.515625 L 2.5 -2.515625 L 2.5 0 L 1.09375 0 Z M 2.5 -7.078125 L 2.5 -3.78125 L 4.359375 -3.78125 C 5.703125 -3.78125 6.375 -4.335938 6.375 -5.453125 C 6.375 -6.535156 5.703125 -7.078125 4.359375 -7.078125 Z M 2.5 -7.078125 "/></g></g></g><g fill="#000000" fill-opacity="1"><g transform="translate(186.681652, 316.730019)"><g><path d="M 6.484375 -1.890625 L 2.28125 -1.890625 L 1.484375 0 L 0.015625 0 L 3.703125 -8.34375 L 5.140625 -8.34375 L 8.78125 0 L 7.28125 0 Z M 5.953125 -3.140625 L 4.375 -6.84375 L 2.796875 -3.140625 Z M 5.953125 -3.140625 "/></g></g></g><g fill="#000000" fill-opacity="1"><g transform="translate(197.623685, 316.730019)"><g><path d="M 3.90625 -11.046875 C 4.132812 -11.046875 4.398438 -10.9375 4.703125 -10.71875 C 5.003906 -10.5 5.207031 -10.390625 5.3125 -10.390625 C 5.613281 -10.390625 5.765625 -10.582031 5.765625 -10.96875 L 6.640625 -10.96875 C 6.640625 -9.925781 6.28125 -9.40625 5.5625 -9.40625 C 5.289062 -9.40625 5.007812 -9.515625 4.71875 -9.734375 C 4.4375 -9.953125 4.238281 -10.0625 4.125 -10.0625 C 3.832031 -10.0625 3.6875 -9.867188 3.6875 -9.484375 L 2.796875 -9.484375 C 2.796875 -10.523438 3.164062 -11.046875 3.90625 -11.046875 Z M 8.328125 0 L 6.953125 0 L 2.5 -5.984375 L 2.5 0 L 1.09375 0 L 1.09375 -8.34375 L 2.484375 -8.34375 L 6.953125 -2.34375 L 6.953125 -8.34375 L 8.328125 -8.34375 Z M 8.328125 0 "/></g></g></g><g fill="#000000" fill-opacity="1"><g transform="translate(209.209288, 316.730019)"><g><path d="M 6.484375 -1.890625 L 2.28125 -1.890625 L 1.484375 0 L 0.015625 0 L 3.703125 -8.34375 L 5.140625 -8.34375 L 8.78125 0 L 7.28125 0 Z M 5.953125 -3.140625 L 4.375 -6.84375 L 2.796875 -3.140625 Z M 5.953125 -3.140625 "/></g></g></g></svg>