<svg xmlns="http://www.w3.org/2000/svg" xmlns:xlink="http://www.w3.org/1999/xlink" width="500" zoomAndPan="magnify" viewBox="0 0 375 374.999991" height="500" preserveAspectRatio="xMidYMid meet" version="1.0"><defs><g/><clipPath id="9026403cd0"><path d="M 33.507812 200.605469 L 350.742188 200.605469 L 350.742188 237.679688 L 33.507812 237.679688 Z M 33.507812 200.605469 " clip-rule="nonzero"/></clipPath></defs><g fill="#3b3937" fill-opacity="1"><g transform="translate(176.410085, 273.355588)"><g><path d="M 6.359375 0 L 6.359375 -1.8125 L 10.1875 -1.8125 C 14.425781 -1.8125 17.726562 -2.78125 20.09375 -4.71875 C 22.457031 -6.664062 23.640625 -9.941406 23.640625 -14.546875 L 23.640625 -115.796875 C 23.640625 -120.160156 22.457031 -123.28125 20.09375 -125.15625 C 17.726562 -127.039062 14.425781 -127.984375 10.1875 -127.984375 L 6.359375 -127.984375 L 6.359375 -129.796875 L 62 -129.796875 L 62 -127.984375 L 58.171875 -127.984375 C 53.929688 -127.984375 50.660156 -127.015625 48.359375 -125.078125 C 46.054688 -123.140625 44.90625 -119.925781 44.90625 -115.4375 L 44.90625 -1.8125 L 76.53125 -1.8125 C 83.195312 -1.8125 88.53125 -2.78125 92.53125 -4.71875 C 96.53125 -6.664062 99.53125 -9.847656 101.53125 -14.265625 C 103.53125 -18.691406 104.773438 -24.785156 105.265625 -32.546875 L 105.8125 -39.453125 L 107.625 -39.453125 L 106.34375 0 Z M 6.359375 0 "/></g></g></g><g fill="#3b3937" fill-opacity="1"><g transform="translate(96.965865, 216.929235)"><g><path d="M 33.265625 0 L 87.984375 -113.625 L 29.8125 -113.625 C 23.632812 -113.625 19.238281 -112.5 16.625 -110.25 C 14.019531 -108.007812 12.476562 -103.863281 12 -97.8125 L 11.8125 -95.265625 L 10 -95.265625 L 11.09375 -129.625 L 93.625 -129.625 L 93.625 -123.4375 L 47.453125 0 Z M 33.265625 0 "/></g></g></g><g fill="#3b3937" fill-opacity="1"><g transform="translate(110.390757, 248.606489)"><g><path d="M 3.625 0 L 3.625 -0.492188 L 1.097656 -0.492188 L 1.097656 -2.324219 L 3.550781 -2.324219 L 3.550781 -2.824219 L 1.097656 -2.824219 L 1.097656 -4.652344 L 3.625 -4.652344 L 3.625 -5.144531 L 0.566406 -5.144531 L 0.566406 0 Z M 3.625 0 "/></g></g></g><g fill="#3b3937" fill-opacity="1"><g transform="translate(120.394524, 248.606489)"><g><path d="M 1.988281 -2.421875 C 2.65625 -2.261719 3.109375 -2.089844 3.351562 -1.890625 C 3.519531 -1.753906 3.601562 -1.582031 3.601562 -1.371094 C 3.601562 -1.15625 3.554688 -0.984375 3.464844 -0.863281 C 3.238281 -0.542969 2.832031 -0.386719 2.253906 -0.386719 C 1.453125 -0.386719 1 -0.660156 0.902344 -1.203125 L 0.28125 -1.203125 C 0.460938 -0.332031 1.121094 0.0976562 2.253906 0.0976562 C 2.761719 0.0976562 3.1875 -0.0078125 3.527344 -0.234375 C 3.933594 -0.5 4.148438 -0.894531 4.148438 -1.40625 C 4.148438 -1.832031 3.980469 -2.15625 3.648438 -2.382812 C 3.414062 -2.550781 3.035156 -2.703125 2.511719 -2.835938 C 1.984375 -2.972656 1.640625 -3.085938 1.484375 -3.171875 C 1.136719 -3.34375 0.960938 -3.585938 0.96875 -3.90625 C 0.96875 -4.070312 1 -4.214844 1.074219 -4.320312 C 1.269531 -4.617188 1.621094 -4.765625 2.117188 -4.765625 C 2.824219 -4.765625 3.222656 -4.539062 3.328125 -4.101562 L 3.90625 -4.101562 C 3.714844 -4.84375 3.117188 -5.222656 2.117188 -5.222656 C 1.664062 -5.222656 1.265625 -5.101562 0.929688 -4.859375 C 0.589844 -4.617188 0.417969 -4.261719 0.417969 -3.777344 C 0.417969 -3.117188 0.945312 -2.664062 1.988281 -2.421875 Z M 1.988281 -2.421875 "/></g></g></g><g fill="#3b3937" fill-opacity="1"><g transform="translate(130.549637, 248.606489)"><g><path d="M 1.097656 -2.550781 L 1.097656 -4.636719 L 2.292969 -4.636719 C 2.601562 -4.636719 2.851562 -4.539062 3.042969 -4.351562 C 3.222656 -4.15625 3.320312 -3.914062 3.320312 -3.609375 C 3.320312 -3.300781 3.222656 -3.050781 3.027344 -2.84375 C 2.832031 -2.648438 2.589844 -2.550781 2.292969 -2.550781 Z M 3.851562 -3.59375 C 3.851562 -4.046875 3.683594 -4.417969 3.367188 -4.714844 C 3.050781 -5 2.671875 -5.144531 2.21875 -5.144531 L 0.566406 -5.144531 L 0.566406 0 L 1.097656 0 L 1.097656 -2.035156 L 2.21875 -2.035156 C 2.671875 -2.035156 3.058594 -2.179688 3.367188 -2.46875 C 3.683594 -2.769531 3.851562 -3.140625 3.851562 -3.59375 Z M 3.851562 -3.59375 "/></g></g></g><g fill="#3b3937" fill-opacity="1"><g transform="translate(140.364224, 248.606489)"><g><path d="M 1.398438 -1.890625 L 2.339844 -4.261719 L 3.269531 -1.890625 Z M 4.59375 0 L 2.339844 -5.5 L 0.0742188 0 L 0.652344 0 L 1.203125 -1.398438 L 3.464844 -1.398438 L 4.019531 0 Z M 4.59375 0 "/></g></g></g><g fill="#3b3937" fill-opacity="1"><g transform="translate(150.844728, 248.606489)"><g><path d="M 1.097656 -3.792969 L 3.988281 0.316406 L 3.988281 -5.144531 L 3.457031 -5.144531 L 3.457031 -1.363281 L 0.566406 -5.472656 L 0.566406 0 L 1.097656 0 Z M 1.042969 -5.675781 L 1.414062 -5.675781 C 1.398438 -5.765625 1.40625 -5.855469 1.429688 -5.933594 C 1.46875 -6.105469 1.574219 -6.199219 1.742188 -6.199219 C 1.839844 -6.199219 1.921875 -6.160156 1.984375 -6.097656 C 2.042969 -6.039062 2.105469 -5.964844 2.164062 -5.886719 C 2.226562 -5.8125 2.308594 -5.734375 2.398438 -5.675781 C 2.488281 -5.613281 2.625 -5.585938 2.824219 -5.585938 C 3.019531 -5.585938 3.164062 -5.628906 3.269531 -5.726562 C 3.472656 -5.925781 3.554688 -6.191406 3.527344 -6.53125 L 3.15625 -6.53125 C 3.15625 -6.332031 3.140625 -6.210938 3.117188 -6.152344 C 3.09375 -6.105469 3.066406 -6.070312 3.019531 -6.046875 C 2.972656 -6.015625 2.90625 -6.007812 2.816406 -6.007812 C 2.722656 -6.007812 2.648438 -6.039062 2.589844 -6.097656 C 2.527344 -6.160156 2.46875 -6.234375 2.40625 -6.3125 C 2.347656 -6.386719 2.269531 -6.453125 2.179688 -6.515625 C 2.089844 -6.574219 1.945312 -6.613281 1.761719 -6.613281 C 1.574219 -6.613281 1.429688 -6.5625 1.324219 -6.460938 C 1.128906 -6.273438 1.027344 -6.007812 1.042969 -5.675781 Z M 1.042969 -5.675781 "/></g></g></g><g fill="#3b3937" fill-opacity="1"><g transform="translate(161.211722, 248.606489)"><g><path d="M 1.398438 -1.890625 L 2.339844 -4.261719 L 3.269531 -1.890625 Z M 4.59375 0 L 2.339844 -5.5 L 0.0742188 0 L 0.652344 0 L 1.203125 -1.398438 L 3.464844 -1.398438 L 4.019531 0 Z M 4.59375 0 "/></g></g></g><g clip-path="url(#9026403cd0)"><path fill="#f4f4f4" d="M 33.507812 200.605469 L 350.5 200.605469 L 350.5 237.519531 L 33.507812 237.519531 Z M 33.507812 200.605469 " fill-opacity="1" fill-rule="nonzero"/></g><g fill="#967f71" fill-opacity="1"><g transform="translate(121.72682, 227.124491)"><g><path d="M 11.363281 -2.195312 C 12.273438 -4.96875 9.796875 -7.460938 7.414062 -9.890625 C 5.140625 -12.195312 2.976562 -14.390625 4.027344 -16.488281 C 4.8125 -18.089844 7.195312 -17.917969 8.542969 -17.664062 C 12.164062 -16.976562 16.144531 -14.40625 16.300781 -12.664062 C 16.347656 -12.039062 15.863281 -11.519531 14.828125 -11.128906 C 13.386719 -10.738281 11.882812 -10.660156 10.40625 -10.863281 C 10.1875 -10.894531 9.984375 -10.738281 9.953125 -10.519531 C 9.921875 -10.296875 10.078125 -10.09375 10.296875 -10.046875 C 11.914062 -9.8125 13.542969 -9.921875 15.125 -10.359375 C 16.882812 -11.019531 17.179688 -12.023438 17.117188 -12.726562 C 16.914062 -15.109375 12.414062 -17.761719 8.699219 -18.464844 C 5.972656 -18.984375 4.058594 -18.402344 3.292969 -16.851562 C 1.976562 -14.234375 4.453125 -11.726562 6.835938 -9.3125 C 9.042969 -7.070312 11.332031 -4.75 10.597656 -2.445312 C 10.125 -0.988281 7.664062 -0.46875 5.597656 -0.609375 C 3.464844 -0.753906 1.785156 -1.519531 1.613281 -2.429688 C 1.519531 -2.914062 1.769531 -4.230469 5.957031 -6.144531 C 6.082031 -6.207031 6.175781 -6.332031 6.191406 -6.488281 C 6.207031 -6.628906 6.144531 -6.789062 6.019531 -6.867188 C 5.894531 -6.945312 5.738281 -6.960938 5.613281 -6.898438 C 2.148438 -5.3125 0.53125 -3.761719 0.800781 -2.289062 C 1.097656 -0.660156 3.542969 0.078125 5.550781 0.203125 C 5.785156 0.21875 6.019531 0.234375 6.253906 0.234375 C 8.386719 0.234375 10.785156 -0.390625 11.363281 -2.195312 Z M 11.363281 -2.195312 "/></g></g></g><g fill="#967f71" fill-opacity="1"><g transform="translate(135.075986, 227.124491)"><g><path d="M 13.152344 -4.027344 C 13.074219 -4.105469 12.980469 -4.167969 12.871094 -4.167969 C 12.757812 -4.183594 12.648438 -4.152344 12.570312 -4.089844 C 12.507812 -4.042969 6.472656 0.753906 1.441406 -1.316406 C 0.421875 -1.738281 0.375 -2.289062 0.40625 -2.585938 C 0.40625 -2.632812 0.421875 -2.679688 0.46875 -2.710938 C 0.5 -2.742188 0.5625 -2.742188 0.609375 -2.726562 C 1.628906 -2.664062 2.648438 -2.929688 3.527344 -3.480469 C 4.277344 -3.964844 4.40625 -4.5 4.359375 -4.84375 C 4.328125 -5.40625 3.871094 -5.863281 3.292969 -5.878906 C 2.054688 -5.941406 -0.015625 -4.46875 -0.359375 -2.898438 C -0.5 -2.320312 -0.484375 -1.222656 1.128906 -0.5625 C 2.117188 -0.15625 3.152344 0.03125 4.199219 0.03125 C 8.699219 0.03125 12.871094 -3.277344 13.089844 -3.449219 C 13.167969 -3.511719 13.230469 -3.621094 13.230469 -3.714844 C 13.246094 -3.824219 13.214844 -3.933594 13.152344 -4.027344 Z M 0.972656 -3.683594 C 1.582031 -4.53125 2.601562 -5.09375 3.246094 -5.046875 C 3.417969 -5.046875 3.511719 -4.984375 3.542969 -4.75 C 3.558594 -4.59375 3.386719 -4.375 3.074219 -4.167969 C 2.429688 -3.746094 0.5 -3.054688 0.972656 -3.683594 Z M 0.972656 -3.683594 "/></g></g></g><g fill="#967f71" fill-opacity="1"><g transform="translate(147.62608, 227.124491)"><g><path d="M 13.871094 -3.964844 C 13.792969 -4.042969 13.683594 -4.089844 13.589844 -4.089844 C 13.480469 -4.089844 13.371094 -4.042969 13.292969 -3.964844 C 11.976562 -2.648438 9.28125 -1.300781 7.117188 -1.347656 C 6.253906 -1.316406 5.40625 -1.644531 4.796875 -2.273438 C 4.78125 -2.289062 4.75 -2.320312 4.734375 -2.351562 C 4.71875 -2.398438 4.71875 -2.445312 4.734375 -2.507812 C 5.046875 -3.054688 5.234375 -3.683594 5.25 -4.328125 C 5.25 -4.640625 5.0625 -4.921875 4.765625 -5.046875 C 4.359375 -5.265625 3.824219 -5.15625 3.558594 -4.765625 C 3.199219 -4.246094 3.324219 -3.277344 3.683594 -2.507812 C 3.699219 -2.445312 3.699219 -2.398438 3.683594 -2.335938 C 3.433594 -1.945312 3.136719 -1.597656 2.804688 -1.285156 C 2.476562 -0.988281 2.007812 -0.691406 1.644531 -0.894531 C 0.847656 -1.660156 0.832031 -3.558594 0.894531 -4.214844 C 0.910156 -4.4375 0.753906 -4.640625 0.53125 -4.65625 C 0.3125 -4.6875 0.109375 -4.53125 0.078125 -4.296875 C 0.078125 -4.183594 -0.1875 -1.441406 1.113281 -0.25 C 1.128906 -0.234375 1.160156 -0.21875 1.175781 -0.21875 C 1.394531 -0.078125 1.644531 0 1.898438 0 C 2.242188 0 2.570312 -0.109375 2.851562 -0.296875 C 3.292969 -0.59375 3.683594 -0.972656 4.011719 -1.394531 C 4.074219 -1.457031 4.167969 -1.503906 4.261719 -1.503906 C 4.359375 -1.503906 4.453125 -1.472656 4.515625 -1.394531 C 5.234375 -0.816406 6.160156 -0.5 7.101562 -0.515625 C 9.609375 -0.453125 12.445312 -1.960938 13.871094 -3.386719 C 13.949219 -3.464844 13.996094 -3.574219 13.996094 -3.683594 C 13.996094 -3.792969 13.949219 -3.886719 13.871094 -3.964844 Z M 4.277344 -3.511719 C 4.261719 -3.480469 4.214844 -3.480469 4.214844 -3.511719 C 4.136719 -3.761719 4.136719 -4.042969 4.230469 -4.296875 C 4.261719 -4.328125 4.296875 -4.359375 4.34375 -4.359375 C 4.375 -4.34375 4.40625 -4.328125 4.4375 -4.296875 C 4.4375 -4.011719 4.390625 -3.746094 4.277344 -3.511719 Z M 4.277344 -3.511719 "/></g></g></g><g fill="#967f71" fill-opacity="1"><g transform="translate(160.787231, 227.124491)"><g><path d="M 13.152344 -4.027344 C 13.074219 -4.105469 12.980469 -4.167969 12.871094 -4.167969 C 12.757812 -4.183594 12.648438 -4.152344 12.570312 -4.089844 C 12.507812 -4.042969 6.472656 0.753906 1.441406 -1.316406 C 0.421875 -1.738281 0.375 -2.289062 0.40625 -2.585938 C 0.40625 -2.632812 0.421875 -2.679688 0.46875 -2.710938 C 0.5 -2.742188 0.5625 -2.742188 0.609375 -2.726562 C 1.628906 -2.664062 2.648438 -2.929688 3.527344 -3.480469 C 4.277344 -3.964844 4.40625 -4.5 4.359375 -4.84375 C 4.328125 -5.40625 3.871094 -5.863281 3.292969 -5.878906 C 2.054688 -5.941406 -0.015625 -4.46875 -0.359375 -2.898438 C -0.5 -2.320312 -0.484375 -1.222656 1.128906 -0.5625 C 2.117188 -0.15625 3.152344 0.03125 4.199219 0.03125 C 8.699219 0.03125 12.871094 -3.277344 13.089844 -3.449219 C 13.167969 -3.511719 13.230469 -3.621094 13.230469 -3.714844 C 13.246094 -3.824219 13.214844 -3.933594 13.152344 -4.027344 Z M 0.972656 -3.683594 C 1.582031 -4.53125 2.601562 -5.09375 3.246094 -5.046875 C 3.417969 -5.046875 3.511719 -4.984375 3.542969 -4.75 C 3.558594 -4.59375 3.386719 -4.375 3.074219 -4.167969 C 2.429688 -3.746094 0.5 -3.054688 0.972656 -3.683594 Z M 0.972656 -3.683594 "/></g></g></g><g fill="#967f71" fill-opacity="1"><g transform="translate(173.337325, 227.124491)"><g><path d="M 13.699219 -3.902344 C 13.605469 -3.964844 13.511719 -4.011719 13.402344 -4.011719 C 13.292969 -3.996094 13.183594 -3.949219 13.121094 -3.871094 C 13.074219 -3.839844 9.625 -0.15625 6.628906 -1.363281 C 5.988281 -1.707031 5.46875 -2.226562 5.109375 -2.867188 C 4.984375 -3.074219 4.828125 -3.277344 4.640625 -3.464844 C 4.4375 -3.714844 4.121094 -3.855469 3.792969 -3.871094 C 2.992188 -3.933594 2.023438 -3.402344 0.863281 -2.304688 C 0.832031 -2.273438 0.785156 -2.257812 0.738281 -2.289062 C 0.691406 -2.304688 0.660156 -2.367188 0.675781 -2.414062 L 1.019531 -3.949219 C 1.082031 -4.167969 0.941406 -4.40625 0.722656 -4.453125 C 0.5 -4.5 0.28125 -4.359375 0.21875 -4.136719 L -0.5625 -0.707031 C -0.609375 -0.515625 -0.515625 -0.328125 -0.34375 -0.25 C -0.171875 -0.15625 0.03125 -0.203125 0.15625 -0.34375 C 2.257812 -2.804688 3.324219 -3.039062 3.699219 -3.054688 C 4.074219 -3.074219 4.3125 -2.585938 4.4375 -2.398438 C 4.875 -1.628906 5.535156 -1.003906 6.316406 -0.609375 C 9.828125 0.816406 13.558594 -3.152344 13.714844 -3.324219 C 13.871094 -3.480469 13.855469 -3.746094 13.699219 -3.902344 Z M 13.699219 -3.902344 "/></g></g></g><g fill="#967f71" fill-opacity="1"><g transform="translate(186.388796, 227.124491)"><g/></g></g><g fill="#967f71" fill-opacity="1"><g transform="translate(192.217306, 227.124491)"><g><path d="M 9.984375 -0.53125 C 10.28125 -0.644531 10.613281 -0.691406 10.925781 -0.628906 C 15.550781 0.171875 21.003906 0.453125 25.425781 -3.054688 C 25.613281 -3.199219 25.628906 -3.449219 25.488281 -3.636719 C 25.347656 -3.808594 25.09375 -3.839844 24.921875 -3.699219 C 21.222656 -0.769531 16.851562 -0.628906 12.726562 -1.175781 C 12.601562 -1.191406 12.492188 -1.300781 12.460938 -1.425781 C 12.429688 -1.566406 12.492188 -1.707031 12.617188 -1.769531 C 14.953125 -3.167969 17.085938 -5.3125 19.0625 -7.601562 C 19.3125 -7.898438 19.6875 -8.089844 20.078125 -8.152344 L 20.347656 -8.183594 C 27.039062 -9.089844 31.523438 -15.234375 31.632812 -17.585938 C 31.679688 -18.464844 31.144531 -18.683594 30.910156 -18.746094 C 27.714844 -19.5 24.65625 -15.722656 21.113281 -11.363281 C 20.582031 -10.691406 20.015625 -10 19.453125 -9.328125 C 19.203125 -9.027344 18.839844 -8.839844 18.464844 -8.824219 C 14.578125 -8.589844 12.070312 -9.5625 11.457031 -11.566406 C 10.832031 -13.621094 12.445312 -16.472656 14.875 -17.648438 C 15.078125 -17.742188 15.171875 -17.996094 15.078125 -18.199219 C 14.96875 -18.402344 14.734375 -18.480469 14.53125 -18.386719 C 11.695312 -17.023438 9.9375 -13.792969 10.675781 -11.332031 C 11.082031 -9.953125 12.539062 -7.882812 17.585938 -7.964844 C 17.710938 -7.964844 17.824219 -7.882812 17.871094 -7.773438 C 17.933594 -7.664062 17.902344 -7.539062 17.824219 -7.445312 C 15.738281 -5.09375 13.464844 -2.976562 11.019531 -1.867188 L 10.800781 -1.769531 C 10.503906 -1.628906 10.1875 -1.597656 9.875 -1.660156 C 9.234375 -1.785156 8.605469 -1.914062 8.011719 -2.039062 C 4.546875 -2.757812 1.800781 -3.324219 0.515625 -1.960938 C 0.1875 -1.644531 0.15625 -1.144531 0.421875 -0.785156 C 0.785156 -0.1875 2.023438 0.707031 4.390625 0.707031 C 6.316406 0.644531 8.214844 0.21875 9.984375 -0.53125 Z M 3.023438 -1.976562 C 4.65625 -1.898438 6.269531 -1.644531 7.835938 -1.238281 C 8.605469 -1.050781 8.417969 -0.847656 8.277344 -0.800781 C 3.902344 0.578125 1.929688 -0.59375 1.488281 -0.847656 C 1.144531 -1.050781 1.097656 -1.238281 1.097656 -1.378906 C 1.097656 -1.785156 2.164062 -1.976562 3.023438 -1.976562 Z M 30.097656 -18.011719 C 30.300781 -18.011719 30.519531 -17.996094 30.722656 -17.949219 C 30.816406 -17.917969 30.816406 -17.761719 30.816406 -17.617188 C 30.738281 -15.957031 27.101562 -10.425781 21.144531 -9.152344 C 21.003906 -9.121094 20.863281 -9.1875 20.785156 -9.3125 C 20.707031 -9.421875 20.722656 -9.578125 20.816406 -9.6875 C 21.128906 -10.078125 21.445312 -10.472656 21.757812 -10.847656 C 24.859375 -14.671875 27.574219 -18.011719 30.097656 -18.011719 Z M 30.097656 -18.011719 "/></g></g></g><g fill="#967f71" fill-opacity="1"><g transform="translate(219.150654, 227.124491)"><g><path d="M 13.105469 -3.792969 C 12.949219 -3.964844 12.679688 -3.980469 12.507812 -3.824219 C 12.460938 -3.777344 7.804688 0.40625 4.921875 -1.488281 C 3.777344 -2.242188 3.496094 -4.058594 3.496094 -4.074219 C 3.480469 -4.261719 3.339844 -4.40625 3.152344 -4.4375 C 2.976562 -4.453125 2.789062 -4.359375 2.710938 -4.199219 C 1.976562 -2.570312 0.675781 -0.5 0.3125 -0.738281 C 0.28125 -0.738281 0.21875 -0.800781 0.171875 -0.910156 C -0.015625 -1.425781 0.046875 -1.992188 0.3125 -2.476562 C 0.910156 -3.699219 2.007812 -4.578125 3.324219 -4.90625 C 3.464844 -4.9375 3.574219 -5.046875 3.621094 -5.1875 C 3.667969 -5.328125 3.621094 -5.484375 3.527344 -5.597656 C 3.417969 -5.691406 3.277344 -5.738281 3.136719 -5.707031 C 1.566406 -5.328125 0.265625 -4.261719 -0.4375 -2.820312 C -0.816406 -2.117188 -0.863281 -1.269531 -0.5625 -0.53125 C -0.421875 -0.171875 -0.078125 0.078125 0.3125 0.078125 L 0.328125 0.078125 C 1.097656 0.0625 2.054688 -0.894531 2.710938 -1.929688 C 2.789062 -2.054688 2.929688 -2.117188 3.074219 -2.101562 C 3.214844 -2.101562 3.339844 -2.023438 3.402344 -1.898438 C 3.667969 -1.457031 4.027344 -1.082031 4.46875 -0.816406 C 7.882812 1.457031 12.851562 -3.023438 13.074219 -3.214844 C 13.152344 -3.292969 13.199219 -3.402344 13.199219 -3.496094 C 13.214844 -3.605469 13.167969 -3.714844 13.105469 -3.792969 Z M 13.105469 -3.792969 "/></g></g></g><g fill="#967f71" fill-opacity="1"><g transform="translate(231.810428, 227.124491)"><g><path d="M 15.472656 -4.136719 C 15.316406 -4.3125 15.046875 -4.328125 14.890625 -4.167969 C 12.789062 -2.398438 9.984375 -1.753906 7.335938 -2.398438 C 7.273438 -2.414062 7.210938 -2.429688 7.164062 -2.445312 C 6.976562 -2.492188 6.820312 -2.617188 6.722656 -2.804688 C 6.644531 -2.976562 6.628906 -3.183594 6.707031 -3.355469 C 6.960938 -3.917969 7.070312 -4.453125 6.851562 -4.734375 C 6.660156 -4.953125 6.332031 -5.015625 6.097656 -4.84375 C 5.15625 -4.390625 4.71875 -3.871094 4.78125 -3.277344 C 4.796875 -3.105469 4.875 -2.929688 4.96875 -2.789062 C 5.125 -2.539062 5.109375 -2.242188 4.9375 -2.023438 C 4.703125 -1.722656 4.4375 -1.457031 4.136719 -1.238281 C 3.871094 -1.066406 3.667969 -1.019531 3.527344 -1.097656 C 3.183594 -1.285156 3.355469 -2.492188 3.605469 -3.261719 C 3.683594 -3.464844 3.574219 -3.699219 3.355469 -3.777344 C 3.136719 -3.855469 2.898438 -3.746094 2.820312 -3.527344 C 2.523438 -2.710938 1.816406 -1.332031 1.175781 -1.066406 C 1.066406 -1.019531 0.941406 -1.019531 0.832031 -1.066406 C 0.707031 -1.128906 0.609375 -1.238281 0.578125 -1.363281 C 0.3125 -2.132812 0.925781 -3.667969 1.191406 -4.199219 C 1.285156 -4.40625 1.207031 -4.640625 1.003906 -4.75 C 0.800781 -4.84375 0.546875 -4.765625 0.4375 -4.5625 C 0.328125 -4.328125 -0.628906 -2.304688 -0.203125 -1.097656 C -0.078125 -0.753906 0.15625 -0.46875 0.484375 -0.3125 C 0.644531 -0.234375 0.832031 -0.203125 1.003906 -0.203125 C 1.175781 -0.203125 1.332031 -0.234375 1.488281 -0.296875 C 1.675781 -0.375 1.832031 -0.484375 1.976562 -0.609375 C 2.242188 -0.832031 2.632812 -0.832031 2.867188 -0.578125 C 2.945312 -0.5 3.039062 -0.421875 3.152344 -0.375 C 3.605469 -0.125 4.40625 -0.09375 5.484375 -1.394531 C 5.582031 -1.503906 5.675781 -1.660156 5.816406 -1.816406 C 5.910156 -1.945312 6.066406 -1.976562 6.207031 -1.914062 C 6.503906 -1.785156 6.820312 -1.675781 7.148438 -1.597656 C 10.0625 -0.894531 13.152344 -1.613281 15.441406 -3.558594 C 15.519531 -3.636719 15.566406 -3.730469 15.566406 -3.839844 C 15.582031 -3.949219 15.535156 -4.058594 15.472656 -4.136719 Z M 5.707031 -3.183594 C 5.644531 -3.230469 5.613281 -3.308594 5.597656 -3.371094 C 5.582031 -3.480469 5.707031 -3.652344 6.035156 -3.871094 C 5.941406 -3.636719 5.832031 -3.402344 5.707031 -3.183594 Z M 5.707031 -3.183594 "/></g></g></g><g fill="#967f71" fill-opacity="1"><g transform="translate(246.683847, 227.124491)"><g/></g></g></svg>